<svg id="svg" version="1.1" width="400" height="159.7560975609756" viewBox="0 0 400 159.7560975609756" xmlns="http://www.w3.org/2000/svg" xmlns:xlink="http://www.w3.org/1999/xlink" ><g id="svgg"><path id="path0" d="" stroke="none" fill="#000000" fill-rule="evenodd"></path><path id="path1" d="M73.489 14.292 C 73.581 14.452,88.462 29.433,106.558 47.583 C 124.655 65.733,139.428 80.640,139.387 80.708 C 139.347 80.777,124.431 80.833,106.240 80.833 L 73.167 80.833 73.167 60.950 C 73.167 45.707,73.120 41.020,72.967 40.867 C 72.689 40.589,33.576 40.575,33.405 40.852 C 33.337 40.961,41.382 49.130,53.068 60.818 C 63.946 71.697,72.793 80.651,72.729 80.716 C 72.664 80.780,60.786 80.833,46.333 80.833 C 31.881 80.833,20.010 80.879,19.955 80.934 C 19.817 81.072,72.669 134.000,72.945 134.000 C 73.128 134.000,73.167 129.464,73.167 107.667 C 73.167 86.186,73.207 81.333,73.383 81.333 C 73.502 81.333,88.435 96.220,106.568 114.415 C 124.701 132.610,139.604 147.456,139.685 147.405 C 139.771 147.352,139.833 133.407,139.833 114.323 C 139.833 88.076,139.876 81.333,140.041 81.333 C 140.156 81.333,146.116 87.200,153.287 94.371 C 162.232 103.315,166.379 107.354,166.497 107.236 C 166.613 107.121,166.655 102.794,166.626 93.991 L 166.583 80.917 153.208 80.874 L 139.833 80.831 139.833 47.416 L 139.833 14.000 106.577 14.000 C 74.953 14.000,73.330 14.014,73.489 14.292 M243.664 21.415 C 235.891 23.551,236.310 34.877,244.211 36.192 C 248.632 36.928,252.341 34.649,253.405 30.543 C 254.861 24.926,249.425 19.832,243.664 21.415 M263.281 21.922 C 263.126 22.246,263.000 22.622,263.000 22.758 C 263.000 22.894,262.928 23.135,262.840 23.294 C 262.753 23.453,262.465 24.258,262.200 25.083 C 261.936 25.908,261.427 27.501,261.068 28.622 C 260.216 31.288,260.283 31.321,259.163 27.667 C 258.212 24.563,258.220 24.589,257.707 23.000 L 257.250 21.583 255.542 21.536 C 254.340 21.502,253.833 21.545,253.833 21.679 C 253.833 21.853,254.839 24.879,257.650 33.167 L 258.640 36.083 260.148 36.131 L 261.657 36.179 261.768 35.715 C 261.829 35.459,261.934 35.175,262.001 35.083 C 262.067 34.992,262.162 34.729,262.210 34.500 C 262.259 34.271,262.684 32.996,263.155 31.667 C 263.626 30.337,264.169 28.781,264.362 28.208 C 264.556 27.635,264.775 27.167,264.850 27.167 C 264.925 27.167,265.136 27.635,265.319 28.208 C 265.502 28.781,266.035 30.337,266.503 31.667 C 266.971 32.996,267.515 34.555,267.712 35.131 L 268.069 36.178 269.553 36.131 L 271.037 36.083 271.576 34.500 C 271.872 33.629,272.152 32.804,272.198 32.667 C 272.245 32.529,272.373 32.154,272.484 31.833 C 272.594 31.512,273.126 29.938,273.665 28.333 C 274.204 26.729,274.939 24.566,275.299 23.527 C 276.054 21.345,276.134 21.469,274.012 21.535 L 272.466 21.583 272.258 22.250 C 272.144 22.617,271.846 23.592,271.596 24.417 C 271.345 25.242,271.077 26.104,271.000 26.333 C 270.777 26.994,270.028 29.537,269.905 30.050 C 269.652 31.104,269.305 30.432,267.858 26.083 C 266.110 20.829,266.429 21.333,264.854 21.333 L 263.562 21.333 263.281 21.922 M224.743 21.708 C 224.699 21.823,224.683 25.104,224.706 29.000 L 224.750 36.083 226.370 36.131 L 227.990 36.179 228.037 33.964 L 228.083 31.750 230.250 31.652 C 231.442 31.597,232.656 31.473,232.949 31.374 C 237.427 29.869,237.470 23.297,233.012 21.755 C 232.034 21.417,224.870 21.376,224.743 21.708 M277.910 21.708 C 277.866 21.823,277.849 25.104,277.873 29.000 L 277.917 36.083 283.500 36.083 L 289.083 36.083 289.134 35.005 C 289.162 34.412,289.142 33.756,289.089 33.547 L 288.994 33.167 285.288 33.164 C 280.888 33.161,281.138 33.259,281.201 31.569 L 281.250 30.250 284.583 30.158 C 288.519 30.049,288.000 30.273,288.000 28.684 C 288.000 27.057,288.266 27.167,284.313 27.167 L 281.153 27.167 281.202 25.792 L 281.250 24.417 285.125 24.372 L 289.000 24.327 289.000 22.914 L 289.000 21.500 283.495 21.500 C 279.244 21.500,277.971 21.547,277.910 21.708 M291.500 28.833 L 291.500 36.167 293.083 36.167 L 294.667 36.167 294.669 34.042 C 294.672 31.425,294.647 31.470,296.091 31.533 L 297.236 31.583 298.756 33.833 L 300.277 36.083 302.139 36.130 C 304.475 36.190,304.501 36.483,301.832 32.603 C 300.784 31.078,300.716 30.767,301.376 30.515 C 303.915 29.550,304.501 24.918,302.349 22.829 C 301.128 21.644,300.402 21.500,295.660 21.500 L 291.500 21.500 291.500 28.833 M306.577 21.706 C 306.533 21.822,306.516 25.104,306.540 29.000 L 306.583 36.083 312.167 36.083 L 317.750 36.083 317.750 34.667 L 317.750 33.250 313.966 33.167 C 309.594 33.070,309.800 33.155,309.867 31.484 L 309.917 30.250 313.250 30.167 L 316.583 30.083 316.583 28.667 L 316.583 27.250 313.208 27.205 L 309.833 27.160 309.833 25.848 C 309.833 24.215,309.505 24.333,314.020 24.333 L 317.680 24.333 317.632 22.958 L 317.583 21.583 312.121 21.539 C 307.840 21.505,306.640 21.541,306.577 21.706 M320.576 21.708 C 320.532 21.823,320.516 25.104,320.540 29.000 L 320.583 36.083 323.833 36.131 C 326.423 36.168,327.321 36.121,328.250 35.899 C 335.782 34.097,336.201 24.281,328.854 21.751 C 327.882 21.417,320.702 21.379,320.576 21.708 M342.333 28.833 L 342.333 36.167 346.351 36.167 C 350.698 36.167,351.764 36.021,353.101 35.244 C 355.323 33.955,355.434 30.577,353.305 29.047 C 352.354 28.364,352.355 28.367,353.014 27.740 C 354.311 26.503,354.342 24.147,353.077 22.826 C 351.920 21.619,351.337 21.500,346.594 21.500 L 342.333 21.500 342.333 28.833 M355.667 21.668 C 355.667 21.766,356.435 23.051,357.375 24.522 C 358.315 25.993,359.158 27.317,359.250 27.464 C 359.342 27.612,359.754 28.261,360.167 28.908 L 360.917 30.083 361.000 33.083 L 361.083 36.083 362.416 36.133 C 364.676 36.217,364.500 36.478,364.500 33.024 L 364.500 30.055 365.167 29.104 C 365.533 28.580,365.833 28.114,365.833 28.067 C 365.833 28.020,366.208 27.413,366.667 26.718 C 367.125 26.023,367.500 25.395,367.500 25.324 C 367.500 25.253,367.557 25.169,367.626 25.139 C 367.799 25.063,369.833 21.853,369.833 21.657 C 369.833 21.568,369.044 21.500,368.023 21.500 L 366.213 21.500 364.562 24.190 C 363.653 25.670,362.836 26.879,362.747 26.878 C 362.657 26.877,361.870 25.685,360.998 24.230 L 359.414 21.583 357.540 21.536 C 356.287 21.505,355.667 21.548,355.667 21.668 M231.217 24.511 C 233.325 25.097,233.599 27.581,231.661 28.534 C 230.858 28.928,228.249 28.954,228.101 28.570 C 227.963 28.211,227.972 24.583,228.111 24.444 C 228.287 24.269,230.517 24.317,231.217 24.511 M247.621 24.660 C 251.090 26.235,250.843 31.833,247.251 33.057 C 242.994 34.508,239.630 29.207,242.581 25.700 C 243.674 24.401,245.996 23.922,247.621 24.660 M298.740 24.518 C 299.681 24.779,300.333 25.533,300.333 26.359 C 300.333 28.026,299.419 28.539,296.583 28.465 L 294.750 28.417 294.702 26.594 C 294.676 25.592,294.693 24.673,294.739 24.552 C 294.845 24.275,297.775 24.250,298.740 24.518 M327.524 24.603 C 331.303 25.664,331.694 31.255,328.094 32.757 C 327.041 33.196,324.342 33.299,324.058 32.911 C 323.744 32.480,323.728 24.570,324.042 24.444 C 324.511 24.254,326.625 24.351,327.524 24.603 M349.954 24.662 C 350.854 25.211,350.899 26.358,350.044 26.938 C 349.657 27.199,349.262 27.249,347.583 27.250 L 345.583 27.250 345.534 26.016 C 345.463 24.250,345.363 24.333,347.536 24.334 C 349.112 24.334,349.504 24.388,349.954 24.662 M350.669 30.429 C 351.761 31.067,351.759 32.324,350.665 32.877 C 350.179 33.122,349.711 33.164,347.833 33.127 L 345.583 33.083 345.534 31.765 C 345.462 29.840,345.312 29.951,347.880 30.026 C 349.722 30.080,350.185 30.147,350.669 30.429 M244.583 42.849 C 237.470 44.086,233.506 46.053,229.193 50.487 C 221.340 58.560,219.978 72.294,226.059 82.083 C 228.816 86.523,232.575 89.668,237.917 92.006 C 241.411 93.535,246.929 94.175,251.500 93.582 C 253.952 93.264,257.073 92.517,258.167 91.987 C 258.304 91.920,258.904 91.633,259.500 91.349 C 260.915 90.674,262.222 89.931,262.977 89.375 C 264.799 88.030,267.833 85.247,267.833 84.920 C 267.833 84.719,261.146 78.000,260.947 78.000 C 260.874 78.000,260.199 78.511,259.448 79.136 C 249.885 87.091,238.020 84.332,234.502 73.333 C 230.469 60.727,241.995 48.946,253.583 53.830 C 255.838 54.781,257.653 55.890,259.356 57.357 C 260.566 58.400,260.627 58.390,261.850 56.958 C 263.317 55.240,264.488 53.886,265.188 53.098 C 266.425 51.702,267.497 50.414,267.499 50.319 C 267.503 50.002,264.614 47.654,262.869 46.556 C 261.578 45.743,261.033 45.459,259.083 44.579 C 255.850 43.119,248.245 42.212,244.583 42.849 M363.851 43.483 C 363.393 43.778,363.785 44.146,364.616 44.199 L 365.417 44.250 365.463 46.715 C 365.500 48.712,365.556 49.199,365.757 49.276 C 366.369 49.510,366.500 49.049,366.500 46.664 C 366.500 44.109,366.472 44.167,367.692 44.167 C 368.286 44.167,368.351 44.127,368.303 43.792 C 368.246 43.387,364.412 43.121,363.851 43.483 M369.200 43.533 C 368.962 43.772,368.919 48.781,369.152 49.149 C 369.574 49.814,369.833 49.191,369.833 47.515 C 369.833 45.965,370.036 45.232,370.266 45.948 C 370.320 46.114,370.423 46.400,370.495 46.583 C 370.568 46.767,370.754 47.254,370.911 47.667 C 371.552 49.362,372.047 49.775,372.468 48.966 C 372.647 48.620,373.667 45.863,373.667 45.724 C 373.667 45.693,373.742 45.667,373.833 45.667 C 373.933 45.667,374.001 46.321,374.003 47.292 C 374.005 49.007,374.130 49.447,374.567 49.280 C 374.875 49.161,374.977 43.608,374.674 43.421 C 374.246 43.157,373.695 43.545,373.421 44.305 C 373.267 44.733,373.081 45.233,373.007 45.417 C 372.730 46.107,372.358 47.094,372.269 47.375 C 372.138 47.789,371.709 47.737,371.584 47.292 C 371.526 47.085,371.415 46.767,371.336 46.583 C 371.257 46.400,371.062 45.875,370.902 45.417 C 370.742 44.958,370.549 44.512,370.472 44.425 C 370.396 44.338,370.333 44.134,370.333 43.973 C 370.333 43.474,369.560 43.174,369.200 43.533 M270.772 43.875 C 270.640 44.366,270.636 52.894,270.768 53.236 C 270.851 53.453,271.175 53.500,272.601 53.500 L 274.333 53.500 274.333 72.986 C 274.333 83.704,274.379 92.591,274.434 92.736 C 274.578 93.109,293.968 93.126,297.090 92.756 C 301.583 92.223,306.055 90.692,308.875 88.720 C 309.311 88.416,309.706 88.167,309.753 88.167 C 309.866 88.167,311.554 86.798,312.505 85.935 C 320.490 78.691,322.277 65.235,316.544 55.511 C 313.769 50.805,308.679 46.770,303.407 45.098 C 302.587 44.838,301.729 44.566,301.500 44.494 C 300.945 44.319,298.570 43.894,296.917 43.675 C 296.078 43.563,291.003 43.498,283.228 43.499 L 270.872 43.500 270.772 43.875 M324.006 43.822 C 323.742 44.315,323.775 52.858,324.042 53.214 C 324.204 53.429,324.583 53.501,325.750 53.537 L 327.250 53.583 327.333 73.250 L 327.417 92.917 332.739 92.961 C 336.885 92.995,338.090 92.958,338.194 92.794 C 338.268 92.678,338.329 89.348,338.331 85.394 L 338.333 78.206 338.708 78.105 C 338.915 78.050,341.558 78.004,344.583 78.002 C 350.734 78.000,352.310 77.814,355.167 76.756 C 355.579 76.603,356.060 76.433,356.236 76.379 C 362.245 74.516,366.407 68.122,366.407 60.750 C 366.407 57.527,366.065 55.569,365.139 53.500 C 362.634 47.896,358.002 44.744,350.705 43.677 C 348.215 43.313,324.209 43.444,324.006 43.822 M297.833 53.896 C 302.613 55.298,305.628 58.004,307.514 62.583 C 308.330 64.567,308.693 68.255,308.312 70.705 C 307.463 76.162,304.339 80.192,299.557 81.999 C 297.290 82.856,297.209 82.865,291.125 82.951 L 285.333 83.032 285.333 68.377 C 285.333 60.317,285.390 53.666,285.458 53.597 C 285.717 53.337,296.845 53.607,297.833 53.896 M350.417 53.942 C 353.968 55.365,355.333 57.278,355.333 60.833 C 355.333 64.428,353.707 66.620,350.047 67.959 C 349.349 68.214,348.575 68.250,343.833 68.250 L 338.417 68.250 338.373 60.861 L 338.330 53.473 343.957 53.541 C 349.104 53.603,349.654 53.637,350.417 53.942 M276.905 102.375 C 276.840 102.581,276.601 103.162,276.373 103.667 C 276.146 104.171,275.851 104.846,275.719 105.167 C 275.263 106.268,275.200 106.418,274.912 107.083 C 274.753 107.450,274.483 108.045,274.311 108.406 C 274.140 108.767,274.000 109.121,274.000 109.193 C 274.000 109.265,273.821 109.720,273.602 110.204 C 272.801 111.977,272.523 112.622,271.750 114.500 C 271.316 115.554,270.813 116.754,270.631 117.167 C 270.449 117.579,270.237 118.067,270.159 118.250 C 270.082 118.433,269.872 118.921,269.693 119.333 C 269.514 119.746,269.165 120.571,268.917 121.167 C 268.669 121.763,268.319 122.587,268.140 123.000 C 267.961 123.412,267.752 123.900,267.674 124.083 C 267.597 124.267,267.383 124.756,267.200 125.170 C 267.017 125.585,266.477 126.860,266.001 128.004 C 265.524 129.147,264.946 130.496,264.716 131.000 C 264.486 131.504,264.089 132.442,263.834 133.083 C 263.578 133.725,263.136 134.758,262.851 135.379 C 262.566 136.000,262.333 136.548,262.333 136.597 C 262.333 136.645,262.173 137.037,261.977 137.467 C 261.271 139.015,261.000 139.698,261.000 139.930 C 261.000 140.128,261.691 140.167,265.227 140.167 L 269.453 140.167 270.328 138.042 C 270.809 136.873,271.307 135.680,271.434 135.391 C 271.562 135.103,271.667 134.821,271.667 134.765 C 271.667 134.667,271.989 133.905,272.678 132.373 L 272.997 131.663 280.874 131.707 L 288.750 131.750 289.063 132.417 C 289.235 132.783,290.023 134.658,290.815 136.583 L 292.254 140.083 296.639 140.128 L 301.024 140.172 300.916 139.794 C 300.856 139.587,300.695 139.154,300.559 138.833 C 300.422 138.512,300.248 138.100,300.172 137.917 C 300.096 137.733,299.885 137.246,299.704 136.833 C 299.523 136.421,299.129 135.483,298.830 134.750 C 298.531 134.017,298.221 133.345,298.143 133.258 C 298.064 133.171,298.000 133.008,298.000 132.895 C 298.000 132.782,297.782 132.216,297.514 131.637 C 297.247 131.057,296.750 129.908,296.410 129.083 C 296.070 128.258,295.576 127.113,295.312 126.537 C 295.049 125.962,294.833 125.452,294.833 125.403 C 294.833 125.355,294.690 125.000,294.516 124.616 C 294.341 124.231,293.919 123.242,293.579 122.417 C 293.239 121.592,292.811 120.579,292.629 120.167 C 291.963 118.657,291.851 118.403,291.532 117.667 C 291.354 117.254,290.963 116.317,290.663 115.583 C 290.364 114.850,290.055 114.179,289.976 114.092 C 289.898 114.005,289.833 113.838,289.833 113.721 C 289.833 113.605,289.654 113.113,289.436 112.630 C 288.569 110.713,288.300 110.093,288.000 109.333 C 287.828 108.898,287.533 108.195,287.344 107.771 C 287.155 107.347,286.845 106.653,286.656 106.229 C 286.467 105.805,286.175 105.112,286.007 104.688 C 285.840 104.264,285.505 103.485,285.263 102.958 L 284.824 102.000 280.923 102.000 C 277.024 102.000,277.022 102.000,276.905 102.375 M343.367 102.200 C 343.257 102.310,343.167 102.467,343.167 102.550 C 343.167 102.696,343.102 102.854,342.337 104.583 C 341.828 105.732,341.600 106.269,341.168 107.333 C 340.963 107.837,340.650 108.587,340.472 109.000 C 340.294 109.412,340.085 109.900,340.008 110.083 C 339.930 110.267,339.704 110.782,339.506 111.229 C 339.308 111.676,339.005 112.398,338.833 112.833 C 338.662 113.269,338.358 113.991,338.158 114.438 C 337.404 116.122,337.185 116.634,336.417 118.500 C 335.983 119.554,335.479 120.754,335.297 121.167 C 335.116 121.579,334.903 122.067,334.826 122.250 C 334.748 122.433,334.539 122.921,334.361 123.333 C 334.182 123.746,333.720 124.833,333.333 125.750 C 332.947 126.667,332.484 127.754,332.306 128.167 C 332.128 128.579,331.918 129.067,331.841 129.250 C 331.763 129.433,331.538 129.949,331.339 130.396 C 331.141 130.843,330.838 131.565,330.667 132.000 C 330.495 132.435,330.191 133.157,329.991 133.604 C 329.298 135.155,329.133 135.540,328.235 137.702 C 327.739 138.897,327.333 139.941,327.333 140.021 C 327.333 140.101,329.247 140.167,331.587 140.167 L 335.840 140.167 336.027 139.708 C 336.683 138.097,336.879 137.619,337.158 136.958 C 337.245 136.752,337.741 135.533,338.259 134.250 C 338.778 132.967,339.288 131.862,339.393 131.794 C 339.498 131.727,343.078 131.671,347.348 131.669 L 355.113 131.667 355.284 132.042 C 355.378 132.248,355.885 133.467,356.411 134.750 C 356.937 136.033,357.477 137.346,357.611 137.667 C 357.746 137.987,357.918 138.400,357.994 138.583 C 358.070 138.767,358.256 139.198,358.407 139.542 L 358.682 140.167 362.980 140.167 C 367.420 140.167,367.582 140.149,367.329 139.690 C 367.146 139.358,366.734 138.406,365.913 136.420 C 365.573 135.598,365.112 134.526,364.890 134.040 C 364.667 133.554,363.994 131.977,363.395 130.536 C 362.795 129.095,362.132 127.540,361.922 127.080 C 361.711 126.619,361.261 125.569,360.922 124.746 C 360.582 123.923,360.086 122.776,359.819 122.197 C 359.552 121.617,359.333 121.051,359.333 120.938 C 359.333 120.826,359.270 120.662,359.192 120.575 C 359.115 120.488,358.728 119.629,358.333 118.667 C 357.938 117.704,357.552 116.845,357.474 116.758 C 357.397 116.671,357.333 116.505,357.333 116.388 C 357.333 116.271,357.154 115.780,356.936 115.296 C 356.137 113.529,355.857 112.880,355.095 111.030 C 354.668 109.992,354.141 108.755,353.924 108.280 C 353.708 107.805,353.252 106.742,352.912 105.917 C 352.571 105.092,352.042 103.873,351.735 103.208 L 351.178 102.000 347.372 102.000 C 344.635 102.000,343.511 102.056,343.367 102.200 M224.910 102.542 C 224.867 102.656,224.850 111.150,224.874 121.417 L 224.917 140.083 233.667 140.133 C 242.669 140.183,242.979 140.166,245.583 139.490 C 247.494 138.993,247.812 138.877,249.456 138.077 C 263.326 131.330,263.453 111.015,249.667 104.468 C 247.524 103.451,246.615 103.157,244.083 102.661 C 242.004 102.253,225.060 102.148,224.910 102.542 M298.908 102.545 C 298.863 102.662,298.847 104.369,298.872 106.337 L 298.917 109.917 304.583 110.000 L 310.250 110.083 310.333 125.083 L 310.417 140.083 314.583 140.083 L 318.750 140.083 318.833 125.083 L 318.917 110.083 324.618 110.039 L 330.319 109.996 330.417 109.456 C 330.470 109.159,330.492 107.454,330.466 105.667 L 330.417 102.417 314.703 102.374 C 302.060 102.340,298.974 102.373,298.908 102.545 M241.551 110.011 C 248.669 111.068,252.645 117.689,250.553 125.000 C 250.409 125.504,250.225 125.988,250.145 126.075 C 250.065 126.162,250.000 126.339,250.000 126.469 C 250.000 127.278,247.799 129.808,246.250 130.780 C 243.811 132.310,242.565 132.566,237.508 132.575 L 233.417 132.583 233.374 121.417 C 233.350 115.275,233.366 110.156,233.410 110.042 C 233.512 109.774,239.795 109.751,241.551 110.011 M281.171 113.010 C 281.232 113.142,281.368 113.418,281.474 113.623 C 281.580 113.828,281.667 114.069,281.667 114.160 C 281.667 114.250,281.847 114.720,282.066 115.204 C 282.875 116.984,285.667 123.886,285.667 124.106 C 285.667 124.372,276.258 124.450,276.095 124.185 C 276.044 124.103,276.385 123.109,276.853 121.976 C 277.321 120.844,277.797 119.692,277.910 119.417 C 278.024 119.142,278.215 118.654,278.335 118.333 C 278.455 118.013,278.616 117.679,278.693 117.592 C 278.770 117.505,278.833 117.338,278.833 117.221 C 278.833 117.105,279.030 116.576,279.270 116.046 C 279.510 115.517,279.815 114.821,279.948 114.500 C 280.081 114.179,280.252 113.767,280.329 113.583 C 280.407 113.400,280.514 113.113,280.568 112.944 C 280.678 112.605,280.999 112.640,281.171 113.010 M348.142 114.460 C 348.541 115.444,349.010 116.568,349.184 116.957 C 349.358 117.345,349.500 117.709,349.500 117.765 C 349.500 117.821,349.620 118.140,349.767 118.475 C 349.914 118.809,350.097 119.233,350.174 119.417 C 350.251 119.600,350.506 120.183,350.740 120.713 C 350.975 121.243,351.167 121.750,351.167 121.839 C 351.167 121.928,351.354 122.390,351.583 122.865 C 352.344 124.441,352.661 124.333,347.260 124.333 C 342.568 124.333,342.082 124.278,342.458 123.784 C 342.542 123.674,342.710 123.321,342.830 123.000 C 343.046 122.427,343.394 121.574,343.679 120.917 C 343.758 120.733,344.048 120.007,344.322 119.304 C 344.596 118.600,344.966 117.700,345.145 117.304 C 345.323 116.907,345.784 115.796,346.169 114.833 C 347.254 112.125,347.200 112.135,348.142 114.460 " stroke="none" fill="#ffffff" fill-rule="evenodd"></path><path id="path2" d="M0.000 56.583 C 0.000 107.912,0.024 113.167,0.262 113.167 C 0.561 113.167,1.000 113.556,1.000 113.821 C 1.000 113.920,1.076 114.000,1.169 114.000 C 1.386 114.000,3.000 115.618,3.000 115.836 C 3.000 115.926,3.080 116.000,3.179 116.000 C 3.409 116.000,3.833 116.424,3.833 116.655 C 3.833 116.753,3.912 116.833,4.007 116.833 C 4.220 116.833,6.667 119.298,6.667 119.513 C 6.667 119.597,6.747 119.667,6.845 119.667 C 7.076 119.667,7.500 120.091,7.500 120.321 C 7.500 120.420,7.576 120.500,7.669 120.500 C 7.886 120.500,9.500 122.118,9.500 122.336 C 9.500 122.426,9.580 122.500,9.679 122.500 C 9.909 122.500,10.333 122.924,10.333 123.155 C 10.333 123.253,10.405 123.333,10.492 123.333 C 10.699 123.333,14.000 126.634,14.000 126.841 C 14.000 126.929,14.079 127.000,14.175 127.000 C 14.396 127.000,16.833 129.449,16.833 129.670 C 16.833 129.760,16.914 129.833,17.012 129.833 C 17.243 129.833,17.667 130.257,17.667 130.488 C 17.667 130.586,17.738 130.667,17.825 130.667 C 18.032 130.667,19.667 132.301,19.667 132.508 C 19.667 132.595,19.747 132.667,19.845 132.667 C 20.076 132.667,20.500 133.091,20.500 133.321 C 20.500 133.420,20.579 133.500,20.675 133.500 C 20.903 133.500,23.333 135.931,23.333 136.159 C 23.333 136.255,23.414 136.333,23.512 136.333 C 23.743 136.333,24.167 136.757,24.167 136.988 C 24.167 137.086,24.241 137.167,24.333 137.167 C 24.546 137.167,27.000 139.624,27.000 139.838 C 27.000 139.927,27.073 140.000,27.163 140.000 C 27.385 140.000,29.833 142.438,29.833 142.658 C 29.833 142.754,29.914 142.833,30.012 142.833 C 30.243 142.833,30.667 143.257,30.667 143.488 C 30.667 143.586,30.741 143.667,30.831 143.667 C 31.049 143.667,32.667 145.281,32.667 145.498 C 32.667 145.591,32.747 145.667,32.845 145.667 C 33.076 145.667,33.500 146.091,33.500 146.321 C 33.500 146.420,33.574 146.500,33.664 146.500 C 33.878 146.500,36.333 148.955,36.333 149.169 C 36.333 149.260,36.414 149.333,36.512 149.333 C 36.743 149.333,37.167 149.757,37.167 149.988 C 37.167 150.086,37.246 150.167,37.342 150.167 C 37.562 150.167,40.000 152.615,40.000 152.837 C 40.000 152.927,40.074 153.000,40.164 153.000 C 40.378 153.000,42.833 155.455,42.833 155.669 C 42.833 155.760,42.914 155.833,43.012 155.833 C 43.243 155.833,43.667 156.257,43.667 156.488 C 43.667 156.586,43.745 156.667,43.840 156.667 C 44.058 156.667,46.004 158.594,46.405 159.208 L 46.705 159.666 223.352 159.667 L 400.000 159.667 400.000 79.833 L 400.000 0.000 200.000 0.000 L 0.000 0.000 0.000 56.583 M139.833 47.416 L 139.833 80.831 153.208 80.874 L 166.583 80.917 166.626 93.991 C 166.655 102.794,166.613 107.121,166.497 107.236 C 166.379 107.354,162.232 103.315,153.287 94.371 C 146.116 87.200,140.156 81.333,140.041 81.333 C 139.876 81.333,139.833 88.076,139.833 114.323 C 139.833 133.407,139.771 147.352,139.685 147.405 C 139.604 147.456,124.701 132.610,106.568 114.415 C 88.435 96.220,73.502 81.333,73.383 81.333 C 73.207 81.333,73.167 86.186,73.167 107.667 C 73.167 129.464,73.128 134.000,72.945 134.000 C 72.669 134.000,19.817 81.072,19.955 80.934 C 20.010 80.879,31.881 80.833,46.333 80.833 C 60.786 80.833,72.664 80.780,72.729 80.716 C 72.793 80.651,63.946 71.697,53.068 60.818 C 41.382 49.130,33.337 40.961,33.405 40.852 C 33.576 40.575,72.689 40.589,72.967 40.867 C 73.120 41.020,73.167 45.707,73.167 60.950 L 73.167 80.833 106.240 80.833 C 124.431 80.833,139.347 80.777,139.387 80.708 C 139.428 80.640,124.655 65.733,106.558 47.583 C 88.462 29.433,73.581 14.452,73.489 14.292 C 73.330 14.014,74.953 14.000,106.577 14.000 L 139.833 14.000 139.833 47.416 M247.883 21.401 C 256.219 23.572,255.153 35.643,246.570 36.269 C 242.986 36.530,240.162 35.029,238.762 32.119 C 235.911 26.192,241.421 19.718,247.883 21.401 M266.282 21.542 C 266.356 21.656,267.065 23.700,267.858 26.083 C 269.305 30.432,269.652 31.104,269.905 30.050 C 270.028 29.537,270.777 26.994,271.000 26.333 C 271.077 26.104,271.345 25.242,271.596 24.417 C 271.846 23.592,272.144 22.617,272.258 22.250 L 272.466 21.583 274.012 21.535 C 276.134 21.469,276.054 21.345,275.299 23.527 C 274.939 24.566,274.204 26.729,273.665 28.333 C 273.126 29.938,272.594 31.512,272.484 31.833 C 272.373 32.154,272.245 32.529,272.198 32.667 C 272.152 32.804,271.872 33.629,271.576 34.500 L 271.037 36.083 269.553 36.131 L 268.069 36.178 267.712 35.131 C 267.515 34.555,266.971 32.996,266.503 31.667 C 266.035 30.337,265.502 28.781,265.319 28.208 C 265.136 27.635,264.925 27.167,264.850 27.167 C 264.775 27.167,264.556 27.635,264.362 28.208 C 264.169 28.781,263.626 30.337,263.155 31.667 C 262.684 32.996,262.259 34.271,262.210 34.500 C 262.162 34.729,262.067 34.992,262.001 35.083 C 261.934 35.175,261.829 35.459,261.768 35.715 L 261.657 36.179 260.148 36.131 L 258.640 36.083 257.650 33.167 C 254.839 24.879,253.833 21.853,253.833 21.679 C 253.833 21.545,254.340 21.502,255.542 21.536 L 257.250 21.583 257.707 23.000 C 258.220 24.589,258.212 24.563,259.163 27.667 C 260.283 31.321,260.216 31.288,261.068 28.622 C 261.427 27.501,261.936 25.908,262.200 25.083 C 262.465 24.258,262.753 23.453,262.840 23.294 C 262.928 23.135,263.000 22.894,263.000 22.758 C 263.000 22.622,263.126 22.246,263.281 21.922 L 263.562 21.333 264.854 21.333 C 265.705 21.333,266.193 21.404,266.282 21.542 M233.012 21.755 C 237.470 23.297,237.427 29.869,232.949 31.374 C 232.656 31.473,231.442 31.597,230.250 31.652 L 228.083 31.750 228.037 33.964 L 227.990 36.179 226.370 36.131 L 224.750 36.083 224.706 29.000 C 224.683 25.104,224.699 21.823,224.743 21.708 C 224.870 21.376,232.034 21.417,233.012 21.755 M289.000 22.914 L 289.000 24.327 285.125 24.372 L 281.250 24.417 281.202 25.792 L 281.153 27.167 284.313 27.167 C 288.266 27.167,288.000 27.057,288.000 28.684 C 288.000 30.273,288.519 30.049,284.583 30.158 L 281.250 30.250 281.201 31.569 C 281.138 33.259,280.888 33.161,285.288 33.164 L 288.994 33.167 289.089 33.547 C 289.142 33.756,289.162 34.412,289.134 35.005 L 289.083 36.083 283.500 36.083 L 277.917 36.083 277.873 29.000 C 277.849 25.104,277.866 21.823,277.910 21.708 C 277.971 21.547,279.244 21.500,283.495 21.500 L 289.000 21.500 289.000 22.914 M300.764 21.853 C 304.336 23.189,304.763 29.228,301.376 30.515 C 300.716 30.767,300.784 31.078,301.832 32.603 C 304.501 36.483,304.475 36.190,302.139 36.130 L 300.277 36.083 298.756 33.833 L 297.236 31.583 296.091 31.533 C 294.647 31.470,294.672 31.425,294.669 34.042 L 294.667 36.167 293.083 36.167 L 291.500 36.167 291.500 28.833 L 291.500 21.500 295.660 21.500 C 299.489 21.500,299.896 21.528,300.764 21.853 M317.632 22.958 L 317.680 24.333 314.020 24.333 C 309.505 24.333,309.833 24.215,309.833 25.848 L 309.833 27.160 313.208 27.205 L 316.583 27.250 316.583 28.667 L 316.583 30.083 313.250 30.167 L 309.917 30.250 309.867 31.484 C 309.800 33.155,309.594 33.070,313.966 33.167 L 317.750 33.250 317.750 34.667 L 317.750 36.083 312.167 36.083 L 306.583 36.083 306.540 29.000 C 306.516 25.104,306.533 21.822,306.577 21.706 C 306.640 21.541,307.840 21.505,312.121 21.539 L 317.583 21.583 317.632 22.958 M328.854 21.751 C 336.201 24.281,335.782 34.097,328.250 35.899 C 327.321 36.121,326.423 36.168,323.833 36.131 L 320.583 36.083 320.540 29.000 C 320.516 25.104,320.532 21.823,320.576 21.708 C 320.702 21.379,327.882 21.417,328.854 21.751 M351.724 21.912 C 354.168 23.068,354.821 26.017,353.014 27.740 C 352.355 28.367,352.354 28.364,353.305 29.047 C 355.434 30.577,355.323 33.955,353.101 35.244 C 351.764 36.021,350.698 36.167,346.351 36.167 L 342.333 36.167 342.333 28.833 L 342.333 21.500 346.594 21.500 C 350.779 21.500,350.869 21.507,351.724 21.912 M360.998 24.230 C 361.870 25.685,362.657 26.877,362.747 26.878 C 362.836 26.879,363.653 25.670,364.562 24.190 L 366.213 21.500 368.023 21.500 C 369.044 21.500,369.833 21.568,369.833 21.657 C 369.833 21.853,367.799 25.063,367.626 25.139 C 367.557 25.169,367.500 25.253,367.500 25.324 C 367.500 25.395,367.125 26.023,366.667 26.718 C 366.208 27.413,365.833 28.020,365.833 28.067 C 365.833 28.114,365.533 28.580,365.167 29.104 L 364.500 30.055 364.500 33.024 C 364.500 36.478,364.676 36.217,362.416 36.133 L 361.083 36.083 361.000 33.083 L 360.917 30.083 360.167 28.908 C 359.754 28.261,359.342 27.612,359.250 27.464 C 359.158 27.317,358.315 25.993,357.375 24.522 C 355.272 21.228,355.258 21.479,357.540 21.536 L 359.414 21.583 360.998 24.230 M228.111 24.444 C 227.972 24.583,227.963 28.211,228.101 28.570 C 228.249 28.954,230.858 28.928,231.661 28.534 C 233.599 27.581,233.325 25.097,231.217 24.511 C 230.517 24.317,228.287 24.269,228.111 24.444 M243.813 24.750 C 239.073 27.219,242.201 34.778,247.251 33.057 C 250.843 31.833,251.090 26.235,247.621 24.660 C 246.575 24.186,244.817 24.227,243.813 24.750 M294.739 24.552 C 294.693 24.673,294.676 25.592,294.702 26.594 L 294.750 28.417 296.583 28.465 C 299.419 28.539,300.333 28.026,300.333 26.359 C 300.333 25.533,299.681 24.779,298.740 24.518 C 297.775 24.250,294.845 24.275,294.739 24.552 M324.042 24.444 C 323.728 24.570,323.744 32.480,324.058 32.911 C 324.342 33.299,327.041 33.196,328.094 32.757 C 331.694 31.255,331.303 25.664,327.524 24.603 C 326.625 24.351,324.511 24.254,324.042 24.444 M345.570 24.557 C 345.523 24.680,345.507 25.337,345.534 26.016 L 345.583 27.250 347.583 27.250 C 350.193 27.249,350.943 26.792,350.597 25.411 C 350.359 24.465,345.897 23.707,345.570 24.557 M345.578 30.204 C 345.527 30.337,345.507 31.040,345.534 31.765 L 345.583 33.083 347.833 33.127 C 350.884 33.187,351.907 32.640,351.406 31.217 C 351.054 30.217,345.916 29.323,345.578 30.204 M251.917 42.846 C 254.546 43.205,257.763 43.983,259.083 44.579 C 261.033 45.459,261.578 45.743,262.869 46.556 C 264.614 47.654,267.503 50.002,267.499 50.319 C 267.497 50.414,266.425 51.702,265.188 53.098 C 264.488 53.886,263.317 55.240,261.850 56.958 C 260.627 58.390,260.566 58.400,259.356 57.357 C 257.653 55.890,255.838 54.781,253.583 53.830 C 241.995 48.946,230.469 60.727,234.502 73.333 C 238.020 84.332,249.885 87.091,259.448 79.136 C 260.199 78.511,260.874 78.000,260.947 78.000 C 261.146 78.000,267.833 84.719,267.833 84.920 C 267.833 85.247,264.799 88.030,262.977 89.375 C 262.222 89.931,260.915 90.674,259.500 91.349 C 258.904 91.633,258.304 91.920,258.167 91.987 C 257.073 92.517,253.952 93.264,251.500 93.582 C 246.929 94.175,241.411 93.535,237.917 92.006 C 232.575 89.668,228.816 86.523,226.059 82.083 C 219.978 72.294,221.340 58.560,229.193 50.487 C 233.506 46.053,237.470 44.086,244.583 42.849 C 245.802 42.637,250.371 42.635,251.917 42.846 M368.303 43.792 C 368.351 44.127,368.286 44.167,367.692 44.167 C 366.472 44.167,366.500 44.109,366.500 46.664 C 366.500 49.049,366.369 49.510,365.757 49.276 C 365.556 49.199,365.500 48.712,365.463 46.715 L 365.417 44.250 364.616 44.199 C 363.785 44.146,363.393 43.778,363.851 43.483 C 364.412 43.121,368.246 43.387,368.303 43.792 M370.011 43.506 C 370.188 43.601,370.333 43.811,370.333 43.973 C 370.333 44.134,370.396 44.338,370.472 44.425 C 370.549 44.512,370.742 44.958,370.902 45.417 C 371.062 45.875,371.257 46.400,371.336 46.583 C 371.415 46.767,371.526 47.085,371.584 47.292 C 371.709 47.737,372.138 47.789,372.269 47.375 C 372.358 47.094,372.730 46.107,373.007 45.417 C 373.081 45.233,373.267 44.733,373.421 44.305 C 373.695 43.545,374.246 43.157,374.674 43.421 C 374.977 43.608,374.875 49.161,374.567 49.280 C 374.130 49.447,374.005 49.007,374.003 47.292 C 374.001 46.321,373.933 45.667,373.833 45.667 C 373.742 45.667,373.667 45.693,373.667 45.724 C 373.667 45.863,372.647 48.620,372.468 48.966 C 372.047 49.775,371.552 49.362,370.911 47.667 C 370.754 47.254,370.568 46.767,370.495 46.583 C 370.423 46.400,370.320 46.114,370.266 45.948 C 370.036 45.232,369.833 45.965,369.833 47.515 C 369.833 48.885,369.786 49.195,369.567 49.280 C 369.098 49.459,369.005 48.974,369.003 46.325 C 369.000 43.368,369.121 43.029,370.011 43.506 M296.917 43.675 C 298.570 43.894,300.945 44.319,301.500 44.494 C 301.729 44.566,302.587 44.838,303.407 45.098 C 316.149 49.139,322.959 63.074,318.632 76.250 C 317.464 79.807,315.045 83.631,312.505 85.935 C 311.554 86.798,309.866 88.167,309.753 88.167 C 309.706 88.167,309.311 88.416,308.875 88.720 C 306.055 90.692,301.583 92.223,297.090 92.756 C 293.968 93.126,274.578 93.109,274.434 92.736 C 274.379 92.591,274.333 83.704,274.333 72.986 L 274.333 53.500 272.601 53.500 C 271.175 53.500,270.851 53.453,270.768 53.236 C 270.636 52.894,270.640 44.366,270.772 43.875 L 270.872 43.500 283.228 43.499 C 291.003 43.498,296.078 43.563,296.917 43.675 M350.705 43.677 C 358.002 44.744,362.634 47.896,365.139 53.500 C 367.127 57.946,366.855 64.943,364.530 69.167 C 362.847 72.223,359.083 75.497,356.236 76.379 C 356.060 76.433,355.579 76.603,355.167 76.756 C 352.310 77.814,350.734 78.000,344.583 78.002 C 341.558 78.004,338.915 78.050,338.708 78.105 L 338.333 78.206 338.331 85.394 C 338.329 89.348,338.268 92.678,338.194 92.794 C 338.090 92.958,336.885 92.995,332.739 92.961 L 327.417 92.917 327.333 73.250 L 327.250 53.583 325.750 53.537 C 324.583 53.501,324.204 53.429,324.042 53.214 C 323.775 52.858,323.742 44.315,324.006 43.822 C 324.209 43.444,348.215 43.313,350.705 43.677 M285.458 53.597 C 285.390 53.666,285.333 60.317,285.333 68.377 L 285.333 83.032 291.125 82.951 C 297.209 82.865,297.290 82.856,299.557 81.999 C 304.339 80.192,307.463 76.162,308.312 70.705 C 308.693 68.255,308.330 64.567,307.514 62.583 C 305.628 58.004,302.613 55.298,297.833 53.896 C 296.845 53.607,285.717 53.337,285.458 53.597 M338.373 60.861 L 338.417 68.250 343.833 68.250 C 349.715 68.250,349.667 68.256,351.713 67.232 C 356.484 64.843,356.613 56.805,351.917 54.590 C 349.779 53.583,350.015 53.614,343.957 53.541 L 338.330 53.473 338.373 60.861 M285.263 102.958 C 285.505 103.485,285.840 104.264,286.007 104.688 C 286.175 105.112,286.467 105.805,286.656 106.229 C 286.845 106.653,287.155 107.347,287.344 107.771 C 287.533 108.195,287.828 108.898,288.000 109.333 C 288.300 110.093,288.569 110.713,289.436 112.630 C 289.654 113.113,289.833 113.605,289.833 113.721 C 289.833 113.838,289.898 114.005,289.976 114.092 C 290.055 114.179,290.364 114.850,290.663 115.583 C 290.963 116.317,291.354 117.254,291.532 117.667 C 291.851 118.403,291.963 118.657,292.629 120.167 C 292.811 120.579,293.239 121.592,293.579 122.417 C 293.919 123.242,294.341 124.231,294.516 124.616 C 294.690 125.000,294.833 125.355,294.833 125.403 C 294.833 125.452,295.049 125.962,295.312 126.537 C 295.576 127.113,296.070 128.258,296.410 129.083 C 296.750 129.908,297.247 131.057,297.514 131.637 C 297.782 132.216,298.000 132.782,298.000 132.895 C 298.000 133.008,298.064 133.171,298.143 133.258 C 298.221 133.345,298.531 134.017,298.830 134.750 C 299.129 135.483,299.523 136.421,299.704 136.833 C 299.885 137.246,300.096 137.733,300.172 137.917 C 300.248 138.100,300.422 138.512,300.559 138.833 C 300.695 139.154,300.856 139.587,300.916 139.794 L 301.024 140.172 296.639 140.128 L 292.254 140.083 290.815 136.583 C 290.023 134.658,289.235 132.783,289.063 132.417 L 288.750 131.750 280.874 131.707 L 272.997 131.663 272.678 132.373 C 271.989 133.905,271.667 134.667,271.667 134.765 C 271.667 134.821,271.562 135.103,271.434 135.391 C 271.307 135.680,270.809 136.873,270.328 138.042 L 269.453 140.167 265.227 140.167 C 261.691 140.167,261.000 140.128,261.000 139.930 C 261.000 139.698,261.271 139.015,261.977 137.467 C 262.173 137.037,262.333 136.645,262.333 136.597 C 262.333 136.548,262.566 136.000,262.851 135.379 C 263.136 134.758,263.578 133.725,263.834 133.083 C 264.089 132.442,264.486 131.504,264.716 131.000 C 264.946 130.496,265.524 129.147,266.001 128.004 C 266.477 126.860,267.017 125.585,267.200 125.170 C 267.383 124.756,267.597 124.267,267.674 124.083 C 267.752 123.900,267.961 123.412,268.140 123.000 C 268.319 122.587,268.669 121.763,268.917 121.167 C 269.165 120.571,269.514 119.746,269.693 119.333 C 269.872 118.921,270.082 118.433,270.159 118.250 C 270.237 118.067,270.449 117.579,270.631 117.167 C 270.813 116.754,271.316 115.554,271.750 114.500 C 272.523 112.622,272.801 111.977,273.602 110.204 C 273.821 109.720,274.000 109.265,274.000 109.193 C 274.000 109.121,274.140 108.767,274.311 108.406 C 274.483 108.045,274.753 107.450,274.912 107.083 C 275.200 106.418,275.263 106.268,275.719 105.167 C 275.851 104.846,276.146 104.171,276.373 103.667 C 276.601 103.162,276.840 102.581,276.905 102.375 C 277.022 102.000,277.024 102.000,280.923 102.000 L 284.824 102.000 285.263 102.958 M351.735 103.208 C 352.042 103.873,352.571 105.092,352.912 105.917 C 353.252 106.742,353.708 107.805,353.924 108.280 C 354.141 108.755,354.668 109.992,355.095 111.030 C 355.857 112.880,356.137 113.529,356.936 115.296 C 357.154 115.780,357.333 116.271,357.333 116.388 C 357.333 116.505,357.397 116.671,357.474 116.758 C 357.552 116.845,357.938 117.704,358.333 118.667 C 358.728 119.629,359.115 120.488,359.192 120.575 C 359.270 120.662,359.333 120.826,359.333 120.938 C 359.333 121.051,359.552 121.617,359.819 122.197 C 360.086 122.776,360.582 123.923,360.922 124.746 C 361.261 125.569,361.711 126.619,361.922 127.080 C 362.132 127.540,362.795 129.095,363.395 130.536 C 363.994 131.977,364.667 133.554,364.890 134.040 C 365.112 134.526,365.573 135.598,365.913 136.420 C 366.734 138.406,367.146 139.358,367.329 139.690 C 367.582 140.149,367.420 140.167,362.980 140.167 L 358.682 140.167 358.407 139.542 C 358.256 139.198,358.070 138.767,357.994 138.583 C 357.918 138.400,357.746 137.987,357.611 137.667 C 357.477 137.346,356.937 136.033,356.411 134.750 C 355.885 133.467,355.378 132.248,355.284 132.042 L 355.113 131.667 347.348 131.669 C 343.078 131.671,339.498 131.727,339.393 131.794 C 339.288 131.862,338.778 132.967,338.259 134.250 C 337.741 135.533,337.245 136.752,337.158 136.958 C 336.879 137.619,336.683 138.097,336.027 139.708 L 335.840 140.167 331.587 140.167 C 329.247 140.167,327.333 140.101,327.333 140.021 C 327.333 139.941,327.739 138.897,328.235 137.702 C 329.133 135.540,329.298 135.155,329.991 133.604 C 330.191 133.157,330.495 132.435,330.667 132.000 C 330.838 131.565,331.141 130.843,331.339 130.396 C 331.538 129.949,331.763 129.433,331.841 129.250 C 331.918 129.067,332.128 128.579,332.306 128.167 C 332.484 127.754,332.947 126.667,333.333 125.750 C 333.720 124.833,334.182 123.746,334.361 123.333 C 334.539 122.921,334.748 122.433,334.826 122.250 C 334.903 122.067,335.116 121.579,335.297 121.167 C 335.479 120.754,335.983 119.554,336.417 118.500 C 337.185 116.634,337.404 116.122,338.158 114.438 C 338.358 113.991,338.662 113.269,338.833 112.833 C 339.005 112.398,339.308 111.676,339.506 111.229 C 339.704 110.782,339.930 110.267,340.008 110.083 C 340.085 109.900,340.294 109.412,340.472 109.000 C 340.650 108.587,340.963 107.837,341.168 107.333 C 341.600 106.269,341.828 105.732,342.337 104.583 C 343.102 102.854,343.167 102.696,343.167 102.550 C 343.167 102.062,343.637 102.000,347.372 102.000 L 351.178 102.000 351.735 103.208 M244.083 102.661 C 246.615 103.157,247.524 103.451,249.667 104.468 C 263.453 111.015,263.326 131.330,249.456 138.077 C 247.812 138.877,247.494 138.993,245.583 139.490 C 242.979 140.166,242.669 140.183,233.667 140.133 L 224.917 140.083 224.874 121.417 C 224.850 111.150,224.867 102.656,224.910 102.542 C 225.060 102.148,242.004 102.253,244.083 102.661 M330.466 105.667 C 330.492 107.454,330.470 109.159,330.417 109.456 L 330.319 109.996 324.618 110.039 L 318.917 110.083 318.833 125.083 L 318.750 140.083 314.583 140.083 L 310.417 140.083 310.333 125.083 L 310.250 110.083 304.583 110.000 L 298.917 109.917 298.872 106.337 C 298.847 104.369,298.863 102.662,298.908 102.545 C 298.974 102.373,302.060 102.340,314.703 102.374 L 330.417 102.417 330.466 105.667 M233.410 110.042 C 233.366 110.156,233.350 115.275,233.374 121.417 L 233.417 132.583 237.508 132.575 C 242.565 132.566,243.811 132.310,246.250 130.780 C 247.799 129.808,250.000 127.278,250.000 126.469 C 250.000 126.339,250.065 126.162,250.145 126.075 C 250.225 125.988,250.409 125.504,250.553 125.000 C 252.645 117.689,248.669 111.068,241.551 110.011 C 239.795 109.751,233.512 109.774,233.410 110.042 M280.568 112.944 C 280.514 113.113,280.407 113.400,280.329 113.583 C 280.252 113.767,280.081 114.179,279.948 114.500 C 279.815 114.821,279.510 115.517,279.270 116.046 C 279.030 116.576,278.833 117.105,278.833 117.221 C 278.833 117.338,278.770 117.505,278.693 117.592 C 278.616 117.679,278.455 118.013,278.335 118.333 C 278.215 118.654,278.024 119.142,277.910 119.417 C 277.797 119.692,277.321 120.844,276.853 121.976 C 276.385 123.109,276.044 124.103,276.095 124.185 C 276.258 124.450,285.667 124.372,285.667 124.106 C 285.667 123.886,282.875 116.984,282.066 115.204 C 281.847 114.720,281.667 114.250,281.667 114.160 C 281.667 114.069,281.580 113.828,281.474 113.623 C 281.368 113.418,281.232 113.142,281.171 113.010 C 280.999 112.640,280.678 112.605,280.568 112.944 M347.039 112.875 C 346.946 112.990,346.555 113.871,346.169 114.833 C 345.784 115.796,345.323 116.907,345.145 117.304 C 344.966 117.700,344.596 118.600,344.322 119.304 C 344.048 120.007,343.758 120.733,343.679 120.917 C 343.394 121.574,343.046 122.427,342.830 123.000 C 342.710 123.321,342.542 123.674,342.458 123.784 C 342.082 124.278,342.568 124.333,347.260 124.333 C 352.661 124.333,352.344 124.441,351.583 122.865 C 351.354 122.390,351.167 121.928,351.167 121.839 C 351.167 121.750,350.975 121.243,350.740 120.713 C 350.506 120.183,350.251 119.600,350.174 119.417 C 350.097 119.233,349.914 118.809,349.767 118.475 C 349.620 118.140,349.500 117.821,349.500 117.765 C 349.500 117.709,349.358 117.345,349.184 116.957 C 349.010 116.568,348.541 115.444,348.142 114.460 C 347.396 112.619,347.327 112.519,347.039 112.875 " stroke="none" fill="#b42e34" fill-rule="evenodd"></path></g></svg>