<svg width="375" height="105" xmlns="http://www.w3.org/2000/svg">

 <g>
  <title>background</title>
  <rect fill="none" id="canvas_background" height="107" width="377" y="-1" x="-1"/>
 </g>
 <g>
  <title>Layer 1</title>
  <path id="svg_1" d="m73.406,27.004c-1.708,-2.704 -3.789,-4.974 -6.244,-6.807c-2.457,-1.83 -5.163,-3.225 -8.117,-4.183c-2.956,-0.957 -6.058,-1.436 -9.304,-1.436c-5.913,0 -10.99,1.123 -15.236,3.371c-4.246,2.248 -7.721,5.226 -10.427,8.929c-2.706,3.705 -4.703,7.889 -5.994,12.551c-1.292,4.662 -1.935,9.449 -1.935,14.361c0,4.828 0.642,9.596 1.935,14.299c1.292,4.703 3.289,8.909 5.994,12.611c2.706,3.705 6.181,6.682 10.427,8.93c4.246,2.247 9.323,3.372 15.236,3.372c4.163,0 7.909,-0.75 11.24,-2.248c3.327,-1.499 6.199,-3.538 8.616,-6.12c2.413,-2.578 3.592,-3.972 5.87,-6.972c3.583,-4.72 6.875,-11.529 7.294,-15.524l7.741,2.268c-0.583,5.492 -4.914,12.873 -7.542,16.939c-4.417,6.831 -3.585,5.421 -7.323,9.159c-3.123,3.122 -6.812,5.951 -11.099,7.617c-4.288,1.663 -9.553,1.998 -14.797,1.998c-6.994,0 -13.134,-1.271 -18.418,-3.81c-5.289,-2.538 -9.68,-5.931 -13.175,-10.177c-3.498,-4.245 -6.12,-9.158 -7.868,-14.735c-1.748,-5.577 -2.622,-11.447 -2.622,-17.607s0.874,-12.029 2.622,-17.608c1.749,-5.577 4.37,-10.509 7.868,-14.798c3.496,-4.288 7.886,-7.7 13.175,-10.24c5.284,-2.539 11.425,-3.81 18.418,-3.81c4.246,0 8.387,0.625 12.425,1.874c4.038,1.249 7.699,3.102 10.989,5.557c3.289,2.456 6.035,5.475 8.243,9.054c2.205,3.581 3.599,7.702 4.183,12.363l-8.492,0c-0.748,-3.412 -1.978,-6.472 -3.683,-9.178z"/>
  <path id="svg_2" d="m126.104,34.809c3.785,1.832 6.971,4.289 9.552,7.367c2.579,3.082 4.537,6.682 5.87,10.803c1.33,4.121 1.998,8.513 1.998,13.176c0,4.662 -0.667,9.053 -1.998,13.175c-1.333,4.12 -3.291,7.723 -5.87,10.801c-2.581,3.082 -5.767,5.517 -9.552,7.306c-3.792,1.788 -8.138,2.685 -13.052,2.685c-4.913,0 -9.262,-0.896 -13.049,-2.685c-3.788,-1.789 -6.974,-4.224 -9.553,-7.306c-2.581,-3.078 -4.539,-6.681 -5.87,-10.801c-1.333,-4.122 -1.998,-8.513 -1.998,-13.175c0,-4.663 0.665,-9.055 1.998,-13.176c1.331,-4.121 3.289,-7.721 5.87,-10.803c2.579,-3.078 5.765,-5.535 9.553,-7.367c3.787,-1.83 8.136,-2.747 13.049,-2.747c4.914,0 9.261,0.917 13.052,2.747zm-22.915,6.244c-2.832,1.582 -5.183,3.664 -7.057,6.244c-1.872,2.581 -3.289,5.516 -4.246,8.805c-0.957,3.288 -1.435,6.639 -1.435,10.053c0,3.416 0.478,6.764 1.435,10.053c0.957,3.288 2.374,6.224 4.246,8.803c1.874,2.582 4.226,4.665 7.057,6.244c2.83,1.585 6.118,2.373 9.864,2.373c3.748,0 7.035,-0.788 9.866,-2.373c2.829,-1.579 5.183,-3.662 7.055,-6.244c1.874,-2.579 3.29,-5.515 4.247,-8.803c0.957,-3.289 1.437,-6.637 1.437,-10.053c0,-3.414 -0.479,-6.765 -1.437,-10.053c-0.957,-3.289 -2.373,-6.224 -4.247,-8.805c-1.872,-2.58 -4.226,-4.662 -7.055,-6.244c-2.831,-1.58 -6.118,-2.373 -9.866,-2.373c-3.746,0 -7.034,0.793 -9.864,2.373z"/>
  <path id="svg_3" d="m207.859,27.004c-1.707,-2.704 -3.788,-4.974 -6.243,-6.807c-2.459,-1.83 -5.162,-3.225 -8.118,-4.183c-2.955,-0.957 -6.059,-1.436 -9.305,-1.436c-5.913,0 -10.99,1.123 -15.235,3.371c-4.247,2.248 -7.722,5.226 -10.427,8.929c-2.706,3.705 -4.705,7.889 -5.994,12.551c-1.292,4.662 -1.936,9.449 -1.936,14.361c0,4.828 0.645,9.596 1.936,14.299c1.29,4.703 3.288,8.909 5.994,12.611c2.705,3.705 6.18,6.682 10.427,8.93c4.245,2.247 9.322,3.372 15.235,3.372c4.163,0 7.911,-0.75 11.24,-2.248c3.329,-1.499 6.199,-3.538 8.617,-6.12c2.411,-2.578 4.37,-5.598 5.871,-9.054c1.495,-3.453 2.452,-7.179 2.869,-11.175l8.493,0c-0.582,5.492 -1.874,10.447 -3.871,14.859c-2,4.414 -4.582,8.162 -7.743,11.239c-3.162,3.08 -6.892,5.454 -11.176,7.117c-4.288,1.664 -9.058,2.498 -14.3,2.498c-6.993,0 -13.133,-1.271 -18.418,-3.81c-5.288,-2.538 -9.678,-5.931 -13.174,-10.177c-3.499,-4.245 -6.119,-9.158 -7.867,-14.735c-1.75,-5.577 -2.624,-11.447 -2.624,-17.607s0.874,-12.029 2.624,-17.608c1.748,-5.577 4.369,-10.509 7.867,-14.798c3.496,-4.288 7.886,-7.7 13.174,-10.24c5.285,-2.539 11.425,-3.81 18.418,-3.81c4.247,0 8.385,0.625 12.426,1.874c4.038,1.249 7.701,3.102 10.989,5.557c3.288,2.456 6.036,5.475 8.243,9.054c2.203,3.581 3.599,7.702 4.183,12.363l-8.491,0c-0.748,-3.411 -1.981,-6.471 -3.684,-9.177z" fill="#00AEEF"/>
  <path id="svg_4" d="m228.277,9.208l0,89.164l-7.868,0l0,-89.164l7.868,0z" fill="#00AEEF"/>
  <path id="svg_5" d="m236.705,77.08c0.789,3.039 2.061,5.766 3.81,8.18c1.748,2.415 3.952,4.415 6.617,5.994c2.663,1.585 5.87,2.373 9.614,2.373c5.748,0 10.244,-1.498 13.488,-4.496c3.248,-2.997 8.877,-8.293 10.128,-13.289l6.563,1.301c-1.663,7.327 -6.805,12.987 -11.257,16.984c-4.455,3.995 -10.763,5.993 -18.923,5.993c-5.078,0 -9.468,-0.896 -13.17,-2.685c-3.709,-1.789 -6.729,-4.246 -9.058,-7.368s-4.057,-6.741 -5.183,-10.864c-1.122,-4.122 -1.684,-8.472 -1.684,-13.049c0,-4.248 0.562,-8.408 1.684,-12.488c1.126,-4.079 2.854,-7.722 5.183,-10.928c2.329,-3.204 5.349,-5.785 9.058,-7.742c3.702,-1.955 8.092,-2.935 13.17,-2.935c5.163,0 9.574,1.042 13.239,3.122c3.663,2.082 6.639,4.809 8.927,8.18c2.29,3.371 3.937,7.242 4.935,11.613s1.416,8.804 1.249,13.3l-49.577,0c0.001,2.831 0.395,5.767 1.187,8.804zm38.964,-24.039c-0.96,-2.747 -2.312,-5.183 -4.061,-7.305c-1.749,-2.123 -3.869,-3.829 -6.371,-5.121c-2.495,-1.289 -5.323,-1.936 -8.491,-1.936c-3.243,0 -6.117,0.646 -8.614,1.936c-2.5,1.292 -4.622,2.998 -6.369,5.121c-1.748,2.122 -3.144,4.578 -4.184,7.367c-1.04,2.791 -1.728,5.641 -2.061,8.555l41.712,0c-0.085,-2.998 -0.606,-5.869 -1.561,-8.617z" fill="#00AEEF"/>
  <path id="svg_6" d="m284.845,43.925c1.332,-2.747 3.142,-4.995 5.436,-6.743c2.288,-1.749 4.97,-3.039 8.053,-3.871c3.079,-0.832 6.494,-1.249 10.239,-1.249c2.829,0 5.662,0.271 8.492,0.812c2.828,0.543 5.369,1.561 7.616,3.06c2.249,1.499 4.077,3.602 5.497,6.306c1.414,2.706 2.122,6.225 2.122,10.554l0,34.216c0,3.165 1.54,4.745 4.623,4.745c0.913,0 1.745,-0.164 2.495,-0.499l0,6.617c-0.92,0.17 -1.728,0.294 -2.436,0.376c-0.707,0.084 -1.604,0.125 -2.688,0.125c-1.995,0 -3.601,-0.27 -4.805,-0.811c-1.207,-0.541 -2.146,-1.313 -2.81,-2.311c-0.671,-0.998 -1.104,-2.185 -1.312,-3.56c-0.207,-1.374 -0.312,-2.892 -0.312,-4.558l-0.249,0c-1.418,2.081 -2.853,3.934 -4.309,5.558c-1.458,1.622 -3.081,2.976 -4.87,4.057c-1.791,1.084 -3.829,1.915 -6.117,2.498c-2.293,0.581 -5.021,0.874 -8.184,0.874c-2.994,0 -5.804,-0.355 -8.426,-1.061c-2.621,-0.705 -4.915,-1.831 -6.87,-3.372c-1.957,-1.541 -3.497,-3.496 -4.619,-5.87c-1.125,-2.372 -1.687,-5.183 -1.687,-8.429c0,-4.494 1,-8.011 2.997,-10.551c1.999,-2.541 4.642,-4.477 7.93,-5.81c3.29,-1.329 6.993,-2.267 11.113,-2.809c4.123,-0.541 8.307,-1.062 12.55,-1.562c1.666,-0.167 3.122,-0.374 4.37,-0.623c1.252,-0.251 2.289,-0.688 3.121,-1.311c0.834,-0.627 1.48,-1.479 1.94,-2.562c0.455,-1.08 0.688,-2.496 0.688,-4.244c0,-2.664 -0.44,-4.85 -1.312,-6.558c-0.874,-1.705 -2.082,-3.059 -3.622,-4.058c-1.543,-0.999 -3.33,-1.686 -5.371,-2.061c-2.04,-0.375 -4.227,-0.562 -6.557,-0.562c-4.992,0 -9.073,1.188 -12.236,3.559c-3.167,2.373 -4.829,6.182 -4.996,11.428l-7.866,0c0.25,-3.745 1.038,-6.992 2.372,-9.74zm39.337,19.231c-0.501,0.918 -1.455,1.583 -2.87,1.998c-1.419,0.419 -2.667,0.707 -3.748,0.874c-3.329,0.584 -6.765,1.106 -10.302,1.562c-3.539,0.459 -6.768,1.146 -9.678,2.061c-2.914,0.916 -5.31,2.228 -7.184,3.933c-1.869,1.708 -2.81,4.144 -2.81,7.308c0,1.996 0.396,3.766 1.188,5.305c0.789,1.543 1.854,2.874 3.184,3.997c1.334,1.125 2.874,1.978 4.622,2.56c1.749,0.583 3.537,0.875 5.369,0.875c2.996,0 5.87,-0.457 8.618,-1.374c2.745,-0.915 5.14,-2.249 7.179,-3.997c2.041,-1.748 3.663,-3.869 4.87,-6.367c1.208,-2.498 1.814,-5.327 1.814,-8.493l0,-10.239l-0.252,0l0,-0.003z" fill="#00AEEF"/>
  <path id="svg_7" d="m342.787,33.935l0,15.11l0.253,0c1.995,-5.245 5.097,-9.282 9.3,-12.113c4.205,-2.83 9.22,-4.121 15.049,-3.871l0,7.867c-3.58,-0.166 -6.824,0.312 -9.739,1.436c-2.915,1.125 -5.431,2.729 -7.557,4.808c-2.123,2.083 -3.77,4.559 -4.932,7.432c-1.167,2.873 -1.747,6.015 -1.747,9.427l0,34.343l-7.87,0l0,-64.438l7.243,0l0,-0.001z" fill="#00AEEF"/>
 </g>
</svg>