<?xml version="1.0" encoding="utf-8"?>
<!-- Svg Vector Icons : http://www.onlinewebfonts.com/icon -->
<!DOCTYPE svg PUBLIC "-//W3C//DTD SVG 1.1//EN" "http://www.w3.org/Graphics/SVG/1.1/DTD/svg11.dtd">
<svg version="1.1" xmlns="http://www.w3.org/2000/svg" xmlns:xlink="http://www.w3.org/1999/xlink" x="0px" y="0px" viewBox="0 0 1000 1000" enable-background="new 0 0 1000 1000" xml:space="preserve">
<metadata> Svg Vector Icons : http://www.onlinewebfonts.com/icon </metadata>
<g><path d="M867.5,10h-735C64.9,10,10,66.7,10,136.5v727.1C10,933.3,64.9,990,132.5,990h735c67.6,0,122.5-56.7,122.5-126.5V136.5C990,66.7,935.1,10,867.5,10z M928.8,863.5c0,34.9-27.5,63.2-61.3,63.2h-735c-33.8,0-61.3-28.4-61.3-63.2V136.5c0-34.9,27.5-63.2,61.3-63.2h735c33.8,0,61.3,28.4,61.3,63.2V863.5z M806.3,231.3H285.6c-16.9,0-30.6,14.2-30.6,31.6c0,17.4,13.7,31.6,30.6,31.6h520.6c16.9,0,30.6-14.1,30.6-31.6C836.9,245.5,823.2,231.3,806.3,231.3z M806.3,389.4H285.6c-16.9,0-30.6,14.1-30.6,31.6c0,17.4,13.7,31.6,30.6,31.6h520.6c16.9,0,30.6-14.2,30.6-31.6C836.9,403.5,823.2,389.4,806.3,389.4z M806.3,547.4H285.6c-16.9,0-30.6,14.2-30.6,31.6s13.7,31.6,30.6,31.6h520.6c16.9,0,30.6-14.1,30.6-31.6S823.2,547.4,806.3,547.4z M806.3,705.5H285.6c-16.9,0-30.6,14.1-30.6,31.6c0,17.4,13.7,31.6,30.6,31.6h520.6c16.9,0,30.6-14.1,30.6-31.6C836.9,719.6,823.2,705.5,806.3,705.5z M163.1,294.5h61.3v-63.2h-61.3V294.5z M163.1,452.6h61.3v-63.2h-61.3V452.6z M163.1,610.6h61.3v-63.2h-61.3V610.6z M163.1,768.7h61.3v-63.2h-61.3V768.7z"/></g>
</svg>