<?xml version="1.0" encoding="utf-8"?>
<!-- Generator: Adobe Illustrator 21.0.0, SVG Export Plug-In . SVG Version: 6.00 Build 0)  -->
<svg version="1.1" id="Layer_1" xmlns="http://www.w3.org/2000/svg" xmlns:xlink="http://www.w3.org/1999/xlink" x="0px" y="0px"
	 viewBox="0 0 1024 670" style="enable-background:new 0 0 1024 670;" xml:space="preserve">
<style type="text/css">
	.st0{fill:#027223;}
	.st1{fill:#FF8200;}
</style>
<g>
	<g>
		<g>
			<path class="st0" d="M811.7,431.5c-56.7,0-110-22.1-150.1-62.2c-40.1-40.1-62.2-93.4-62.2-150.1c0-56.7,22.1-110,62.2-150.1
				C701.6,28.9,755,6.8,811.7,6.8c56.7,0,110,22.1,150.1,62.2c40.1,40.1,62.2,93.4,62.2,150.1c0,56.7-22.1,110-62.2,150.1
				C921.7,409.4,868.4,431.5,811.7,431.5z M811.7,15.8c-112.1,0-203.4,91.2-203.4,203.4s91.2,203.4,203.4,203.4
				S1015,331.3,1015,219.1S923.8,15.8,811.7,15.8z"/>
		</g>
		<circle class="st1" cx="691.7" cy="151.5" r="54.4"/>
		<circle class="st1" cx="838.3" cy="86.9" r="54.4"/>
		<circle class="st1" cx="944.7" cy="206" r="54.4"/>
		<circle class="st1" cx="865.2" cy="343.5" r="54.4"/>
		<circle class="st1" cx="709.1" cy="311.2" r="54.4"/>
		<g>
			<path class="st0" d="M898.8,86.9c0,6.6-1.1,12.9-3,18.8c14.8,11.1,27.5,24.9,37,40.9c3.8-0.8,7.8-1.2,11.9-1.2
				c14.6,0,28,5.2,38.4,13.7c-16.1-45.8-50-83.3-93.3-104C895.5,64.4,898.8,75.3,898.8,86.9z"/>
			<path class="st0" d="M691.7,91c14.3,0,27.4,5,37.8,13.2c14.4-10.3,30.8-18,48.4-22.3c1.5-18.2,11.1-34.2,25.2-44.2
				c-47.2,2.2-89.7,22.5-120.8,54.1C685.4,91.2,688.5,91,691.7,91z"/>
			<path class="st0" d="M944.8,266.5c-6.1,17.2-15.5,32.9-27.4,46.3c5.3,9,8.4,19.5,8.4,30.7c0,6.8-1.1,13.3-3.2,19.4
				c36.7-28.4,62.3-70.5,69-118.6C980.5,257.9,963.6,266.5,944.8,266.5z"/>
			<path class="st0" d="M676.5,260.2c-4-13-6.1-26.8-6.1-41.1c0-3.6,0.1-7.2,0.4-10.8c-16-5.9-28.8-18.4-35.2-34.1
				c-3.7,14.4-5.6,29.4-5.6,44.9c0,29.4,7,57.1,19.4,81.7C652.4,283.8,662.5,269.2,676.5,260.2z"/>
			<path class="st0" d="M807,360.3c-17.9-0.6-35-4.5-50.7-11.2c-10.3,12.8-25.8,21.4-43.2,22.5c28.4,18.4,62.3,29.2,98.6,29.2
				c9.6,0,19.1-0.8,28.3-2.2C824.1,391.3,811.9,377.4,807,360.3z"/>
		</g>
	</g>
	<g>
		<path class="st0" d="M53.4,364.2c-8.7,0-16.4-0.9-23.1-2.7c-6.7-1.8-12.2-4.4-16.7-7.6c-4.5-3.3-7.9-7.2-10.1-11.9
			c-2.3-4.7-3.4-9.8-3.4-15.4c0-5.4,1.7-9.8,5-13.1c3.4-3.3,8.1-5,14.3-5c0.3,5.6,1.1,10.9,2.6,16.1c1.4,5.1,3.6,9.7,6.5,13.6
			c2.9,3.9,6.5,7.1,11,9.4c4.4,2.4,9.8,3.5,16.1,3.5c12,0,21.4-2.9,28.2-8.7c6.8-5.8,10.1-14.1,10.1-25c0-4.9-0.7-9.2-2.1-12.9
			c-1.4-3.7-3.7-7.2-6.9-10.4c-3.2-3.2-7.5-6.2-12.8-9.2c-5.3-2.9-11.8-6-19.7-9.2c-8.3-3.4-15.5-7-21.7-10.9
			c-6.2-3.9-11.3-8.2-15.4-12.9S8,241.7,6,235.9c-2-5.8-3-12.4-3-19.7c0-7.7,1.5-14.5,4.4-20.5c2.9-6,7-11.1,12.2-15.2
			c5.2-4.1,11.4-7.3,18.6-9.5c7.1-2.2,14.9-3.3,23.4-3.3c8,0,15.1,0.8,21.3,2.5c6.2,1.7,11.4,3.9,15.7,6.7c4.3,2.8,7.5,6,9.7,9.6
			c2.2,3.6,3.3,7.4,3.3,11.3c0,5.8-1.9,10.1-5.7,13c-3.8,2.9-8.9,4.4-15.4,4.4c0-4.2-0.5-8.3-1.5-12.4c-1-4.1-2.7-7.7-5-10.9
			c-2.4-3.2-5.5-5.8-9.3-7.8c-3.8-2-8.6-3-14.3-3c-5.2,0-9.7,0.7-13.8,2.2c-4.1,1.4-7.5,3.5-10.3,6.1c-2.8,2.7-4.9,5.9-6.4,9.6
			c-1.5,3.7-2.2,7.9-2.2,12.6c0,5.3,0.7,10,2.1,14.1c1.4,4.1,3.7,7.7,7,11c3.3,3.3,7.6,6.4,12.9,9.3c5.3,2.9,11.9,6,19.6,9.1
			c7.9,3.2,14.8,6.6,21,10.2s11.4,7.6,15.6,12c4.3,4.4,7.5,9.3,9.8,14.8c2.3,5.4,3.4,11.6,3.4,18.5c0,8.5-1.6,16-4.6,22.7
			c-3.1,6.7-7.5,12.3-13.3,16.9c-5.8,4.6-12.7,8.1-20.8,10.5C72.4,363,63.4,364.2,53.4,364.2z"/>
		<path class="st0" d="M282.6,289.5c0,12.9-1.2,24.1-3.6,33.5c-2.4,9.4-5.9,17.2-10.5,23.3c-4.6,6.1-10.3,10.6-17.1,13.5
			c-6.8,2.9-14.6,4.4-23.4,4.4c-5.2,0-9.8-0.6-14-1.7c-4.2-1.1-8-2.7-11.3-4.8c-3.4-2.1-6.3-4.6-8.9-7.5c-2.6-2.9-4.8-6.1-6.7-9.5
			h-1c0.2,4.6,0.3,8.9,0.5,12.9c0.1,1.7,0.1,3.4,0.2,5.2c0,1.8,0.1,3.5,0.1,5c0,1.6,0.1,3,0.1,4.3c0,1.3,0.1,2.2,0.1,2.9v25.6
			c0,3.9,0.6,7.1,1.8,9.5c1.2,2.4,2.8,4.2,4.8,5.5c2,1.3,4.3,2.1,7,2.5c2.7,0.4,5.5,0.6,8.4,0.6h0.8v11.2h-72.1v-11.2h2.1
			c3.1,0,5.9-0.2,8.6-0.7c2.7-0.4,5-1.3,6.9-2.7c2-1.3,3.5-3.3,4.7-5.9c1.2-2.6,1.8-5.9,1.8-10.1V247.5c0-3.9-0.6-7.1-1.8-9.5
			s-2.8-4.3-4.8-5.6c-2-1.3-4.3-2.2-7-2.6c-2.7-0.4-5.5-0.7-8.4-0.7h-3.4V218h46.8l2.8,24.2h1c2-4.1,4.3-7.8,6.8-11.1
			c2.5-3.3,5.5-6.1,8.8-8.4c3.3-2.3,7.1-4.1,11.2-5.4c4.2-1.3,8.9-1.9,14.1-1.9c8.8,0,16.6,1.5,23.4,4.4c6.8,2.9,12.5,7.4,17.1,13.5
			c4.6,6.1,8.1,13.8,10.5,23.1C281.4,265.6,282.6,276.7,282.6,289.5z M223.4,232.5c-7,0-12.8,1.2-17.5,3.5
			c-4.7,2.3-8.4,5.8-11.2,10.5s-4.8,10.6-5.9,17.8c-1.2,7.1-1.8,15.6-1.8,25.2c0,9.3,0.6,17.6,1.8,24.7c1.2,7.2,3.2,13.2,6,18
			c2.8,4.9,6.6,8.6,11.2,11c4.7,2.5,10.5,3.7,17.6,3.7c5.9,0,11-1.2,15.1-3.7c4.1-2.5,7.5-6.2,10.2-11c2.7-4.9,4.6-10.9,5.8-18.1
			c1.2-7.2,1.8-15.5,1.8-24.9c0-9.5-0.6-17.8-1.8-24.9c-1.2-7.1-3.2-13-5.8-17.7c-2.7-4.7-6.1-8.2-10.3-10.6
			C234.4,233.7,229.3,232.5,223.4,232.5z"/>
		<path class="st0" d="M383.4,361.6h-77.3v-11.2h0.8c3,0,5.9-0.2,8.6-0.7c2.7-0.4,5-1.3,6.9-2.7c2-1.4,3.5-3.3,4.7-5.8
			s1.8-5.9,1.8-10.1v-83.6c0-3.9-0.6-7.1-1.8-9.5s-2.8-4.3-4.8-5.6s-4.3-2.2-7-2.6c-2.7-0.4-5.5-0.7-8.4-0.7h-0.8V218h41.2l5.1,26.5
			h1.3c1.7-4,3.5-7.8,5.4-11.3c1.8-3.5,4.1-6.6,6.7-9.3c2.7-2.7,5.9-4.8,9.9-6.3c3.9-1.5,8.8-2.3,14.8-2.3c9.8,0,17,1.7,21.8,5.1
			c4.8,3.4,7.1,8.2,7.1,14.4c0,2.8-0.5,5.4-1.4,7.7c-0.9,2.4-2.4,4.4-4.4,6.1c-2,1.7-4.6,3-7.7,3.9c-3.1,0.9-7,1.4-11.5,1.4
			c0-7.4-1-12.8-3.1-16c-2.1-3.3-5.8-4.9-11-4.9c-3.3,0-6.3,0.9-8.9,2.8c-2.6,1.9-4.9,4.4-6.9,7.5c-2,3.1-3.6,6.6-5,10.7
			c-1.3,4-2.4,8.1-3.3,12.4s-1.4,8.4-1.8,12.6c-0.4,4.2-0.5,8-0.5,11.4v42.1c0,3.9,0.6,7.1,1.8,9.5c1.2,2.4,2.8,4.2,4.8,5.4
			c2,1.2,4.3,2,7,2.4s5.5,0.6,8.4,0.6h7.5V361.6z"/>
		<path class="st0" d="M574.7,218v11.2h-0.8c-2.6,0-4.9,0.3-6.7,0.8c-1.9,0.6-3.6,1.6-5.1,3.2c-1.5,1.6-2.9,3.7-4.2,6.4
			c-1.3,2.7-2.7,6.2-4.3,10.5l-40.7,112.5c-3.1,8.6-6.1,16.2-8.9,22.8c-2.8,6.5-5.7,12.1-8.8,16.8c-3.1,4.7-6.4,8.5-10,11.6
			c-3.6,3-7.7,5.5-12.4,7.3c-4.6,1.8-9.9,3.1-16,3.8c-6,0.7-13,1-20.9,1h-2.4v-12.7c9.1,0,16.9-1.4,23.4-4.1
			c6.5-2.7,12.2-6.4,16.9-11.1c4.8-4.7,8.7-10.3,11.9-16.7c3.2-6.4,5.9-13.4,8-20.9l-49.6-117c-1.2-2.8-2.4-5.1-3.5-6.9
			c-1.1-1.8-2.4-3.2-3.9-4.4s-3.1-1.9-5-2.4c-1.9-0.4-4.1-0.7-6.7-0.7h-0.8V218h64.3v11.2H488c-5.4,0-9.4,1-12.1,3.1s-4,5.4-4,9.8
			c0,1.5,0.2,3,0.5,4.5c0.3,1.5,0.9,3.3,1.6,5.3l19.6,47.7c1.2,3.1,2.5,6.4,3.9,10c1.3,3.6,2.6,7.2,3.8,10.7c1.2,3.5,2.2,6.9,3.2,10
			c1,3.1,1.6,5.8,2,8.1h0.8c1-3.9,2.3-8.7,4-14.3c1.7-5.6,3.7-11.7,6-18.1l17.9-52.2c0.8-2.2,1.4-4.3,1.8-6.3c0.4-2,0.6-3.7,0.6-5.2
			c0-4.6-1.5-8-4.4-10.1c-2.9-2.1-7.3-3.1-13.3-3.1H519V218H574.7z"/>
	</g>
	<g>
		<path class="st1" d="M321.1,497.9h63.3v93.8c-4.8,1.6-9.6,3-14.5,4.2c-4.9,1.2-9.9,2.2-15,3.1s-10.5,1.5-16.2,1.9
			c-5.7,0.4-11.8,0.7-18.3,0.7c-13.7,0-25.8-2.3-36.4-6.9c-10.5-4.6-19.4-11.1-26.7-19.6c-7.2-8.5-12.7-18.8-16.5-31
			c-3.7-12.2-5.6-25.8-5.6-41c0-15,2.1-28.6,6.2-40.7c4.1-12.1,10.2-22.4,18.1-30.9c7.9-8.5,17.7-15,29.4-19.6
			c11.6-4.6,24.9-6.9,39.8-6.9c9.7,0,19,1,27.9,2.9c8.9,1.9,17.2,4.7,24.8,8.4l-9.4,21.2c-3.1-1.5-6.5-2.9-10.1-4.2
			c-3.6-1.3-7.3-2.5-11.2-3.5c-3.8-1-7.8-1.8-11.8-2.4c-4.1-0.6-8.1-0.9-12.1-0.9c-10.6,0-20,1.8-28.2,5.3
			c-8.2,3.5-15.1,8.6-20.6,15.2c-5.5,6.6-9.7,14.7-12.6,24.2c-2.9,9.5-4.3,20.2-4.3,32.2c0,11.3,1.2,21.7,3.6,31.1
			c2.4,9.4,6.2,17.5,11.4,24.3c5.2,6.8,12,12.1,20.3,15.8c8.3,3.8,18.3,5.6,29.9,5.6c3.8,0,7.3-0.1,10.5-0.3
			c3.2-0.2,6.1-0.5,8.8-0.8c2.7-0.3,5.3-0.8,7.7-1.2s4.7-0.9,7-1.4v-57h-39.1V497.9z"/>
		<path class="st1" d="M488.5,452.7c2.5,0,5.4,0.1,8.5,0.3c3.1,0.2,5.8,0.5,8.1,1l-3.1,22c-2.4-0.4-4.9-0.8-7.5-1.1
			c-2.6-0.3-5-0.5-7.2-0.5c-5.5,0-10.5,1.1-15,3.3c-4.5,2.2-8.4,5.4-11.7,9.6c-3.3,4.1-5.8,9.1-7.6,14.9c-1.8,5.8-2.7,12.2-2.7,19.3
			v77.4h-23.8V455.3h19.4l2.9,26.3h1c2.2-3.7,4.5-7.4,7-10.9c2.5-3.5,5.3-6.6,8.4-9.2s6.6-4.8,10.4-6.4
			C479.3,453.5,483.6,452.7,488.5,452.7z"/>
		<path class="st1" d="M650.3,526.8c0,12-1.5,22.6-4.4,31.8s-7.1,17.1-12.6,23.4c-5.4,6.3-12,11.1-19.8,14.4c-7.8,3.3-16.5,5-26.2,5
			c-9,0-17.3-1.7-24.8-5c-7.6-3.3-14.1-8.1-19.7-14.4c-5.5-6.3-9.9-14.1-12.9-23.4c-3.1-9.3-4.7-19.9-4.7-31.8
			c0-11.9,1.5-22.4,4.4-31.6c2.9-9.2,7.1-17,12.5-23.3c5.4-6.3,12-11.1,19.8-14.4c7.8-3.3,16.5-4.9,26.2-4.9c9,0,17.3,1.6,24.8,4.9
			c7.6,3.3,14.1,8.1,19.7,14.4c5.5,6.3,9.9,14.1,12.9,23.3C648.7,504.4,650.3,515,650.3,526.8z M549.8,526.8c0,18.2,3,31.9,9,41.1
			c6,9.2,15.7,13.8,29.1,13.8c13.4,0,23.1-4.6,29-13.8c5.9-9.2,8.8-22.9,8.8-41.1c0-18.2-3-31.8-9-40.9c-6-9-15.7-13.5-29.1-13.5
			c-13.4,0-23.1,4.5-29,13.5C552.8,495,549.8,508.6,549.8,526.8z"/>
		<path class="st1" d="M780.8,598.9l-3.5-19.2h-1.3c-2.2,3.7-4.8,7-7.8,9.7c-3,2.7-6.3,5-9.9,6.8c-3.6,1.8-7.4,3.1-11.4,4
			c-4,0.9-8.1,1.3-12.3,1.3c-7.9,0-14.9-1-20.9-3c-6-2-11-5.1-15-9.4c-4-4.3-7-9.7-9.1-16.4c-2-6.6-3.1-14.5-3.1-23.7v-93.8h23.8
			v92.4c0,11.3,2.3,19.8,6.9,25.5c4.6,5.7,11.8,8.5,21.4,8.5c7.1,0,13-1.1,17.8-3.4c4.8-2.3,8.6-5.6,11.6-10c2.9-4.4,5-9.8,6.3-16.3
			c1.3-6.4,1.9-13.9,1.9-22.2v-74.5H800v143.6H780.8z"/>
		<path class="st1" d="M910.4,601.5c-5.2,0-9.8-0.6-14-1.7c-4.2-1.1-8-2.6-11.3-4.5c-3.4-1.9-6.3-4.1-8.9-6.6
			c-2.6-2.5-4.9-5.2-6.9-8h-1.6c0.3,3,0.5,5.8,0.8,8.5c0.2,2.3,0.4,4.6,0.5,7c0.2,2.4,0.3,4.3,0.3,5.7v61.3h-23.8V455.3h19.3
			l3.4,19.4h1.1c2-3.1,4.3-5.9,6.8-8.6c2.5-2.7,5.5-5,8.8-6.9c3.3-2,7.1-3.5,11.3-4.7c4.2-1.2,8.9-1.8,14.1-1.8
			c8.2,0,15.6,1.6,22.4,4.7c6.7,3.1,12.4,7.8,17.2,14.1c4.8,6.2,8.4,14,11.1,23.2c2.6,9.2,3.9,20,3.9,32.2c0,12.3-1.3,23.1-3.9,32.4
			c-2.6,9.3-6.3,17.1-11.1,23.3s-10.5,11-17.2,14.2C926,599.9,918.6,601.5,910.4,601.5z M905.8,472.4c-6.6,0-12.2,1-16.8,3
			c-4.6,2-8.3,5.1-11.1,9.2c-2.8,4.1-4.9,9.2-6.3,15.3c-1.4,6.1-2.1,13.3-2.3,21.6v5.4c0,8.8,0.6,16.6,1.8,23.5
			c1.2,6.8,3.2,12.6,6,17.3c2.8,4.7,6.6,8.2,11.3,10.6c4.7,2.4,10.6,3.6,17.7,3.6c11.8,0,20.4-4.7,26-14.3
			c5.5-9.5,8.3-23.1,8.3-40.9c0-18.1-2.8-31.7-8.3-40.7C926.5,476.9,917.7,472.4,905.8,472.4z"/>
	</g>
</g>
</svg>
