<?xml version="1.0" standalone="no"?>
<!DOCTYPE svg PUBLIC "-//W3C//DTD SVG 20010904//EN"
 "http://www.w3.org/TR/2001/REC-SVG-20010904/DTD/svg10.dtd">
<svg version="1.0" xmlns="http://www.w3.org/2000/svg"
 width="506.000000pt" height="808.000000pt" viewBox="0 0 506.000000 808.000000"
 preserveAspectRatio="xMidYMid meet">
<metadata>
Created by potrace 1.15, written by Peter Selinger 2001-2017
</metadata>
<g transform="translate(0.000000,808.000000) scale(0.100000,-0.100000)"
fill="#000000" stroke="none">
<path d="M0 4752 l0 -3327 713 -713 712 -712 1818 0 1817 0 0 4040 0 4040
-2530 0 -2530 0 0 -3328z m1380 2524 c49 -32 79 -91 80 -154 1 -186 -252 -259
-356 -104 -62 91 -27 217 75 272 53 30 145 23 201 -14z m429 -78 c19 -60 38
-108 41 -108 4 0 21 47 39 105 l32 105 44 0 c25 0 45 -2 45 -4 0 -3 -27 -83
-60 -178 -33 -95 -60 -174 -60 -175 0 -2 -17 -3 -39 -3 l-39 0 -38 110 -38
110 -18 -48 c-10 -26 -27 -75 -39 -109 -21 -63 -21 -63 -60 -63 -21 0 -39 1
-39 3 0 1 -27 80 -60 175 -33 95 -60 175 -60 178 0 3 21 4 47 2 l47 -3 31
-102 c17 -56 33 -104 36 -107 3 -3 22 47 43 110 l38 115 36 -3 36 -3 35 -107z
m-820 76 c65 -54 61 -155 -8 -201 -26 -17 -48 -23 -92 -23 l-59 0 0 -55 0 -55
-40 0 -40 0 0 180 0 180 104 0 c98 0 106 -2 135 -26z m1341 -9 l0 -35 -95 0
-95 0 0 -35 0 -35 85 0 85 0 0 -35 0 -35 -85 0 -85 0 0 -35 0 -35 95 0 95 0 0
-40 0 -40 -140 0 -140 0 0 180 0 180 140 0 140 0 0 -35z m326 1 c30 -30 34
-40 34 -86 0 -47 -4 -56 -34 -85 l-35 -32 39 -54 c22 -30 40 -57 40 -61 0 -5
-21 -8 -47 -8 -47 0 -49 1 -83 55 -31 48 -39 55 -67 55 l-33 0 0 -55 0 -55
-40 0 -40 0 0 180 0 180 116 0 116 0 34 -34z m384 -1 l0 -35 -100 0 -100 0 0
-35 0 -35 85 0 85 0 0 -35 0 -34 -82 -3 -83 -3 -3 -32 -3 -33 100 0 101 0 0
-40 0 -40 -140 0 -140 0 0 180 0 180 140 0 140 0 0 -35z m298 21 c90 -47 128
-157 83 -244 -40 -78 -92 -102 -226 -102 l-95 0 0 180 0 180 105 0 c72 0 115
-5 133 -14z m563 -15 c34 -35 39 -87 11 -117 -18 -18 -18 -20 10 -46 31 -28
37 -68 17 -112 -20 -43 -65 -56 -188 -56 l-111 0 0 180 0 180 116 0 c114 0
116 0 145 -29z m191 -19 c53 -94 50 -93 93 -18 l39 66 48 0 c57 0 59 8 -28
-125 -53 -82 -54 -84 -54 -159 l0 -76 -45 0 -45 0 0 72 c0 71 -1 72 -65 173
-36 56 -65 105 -65 109 0 3 21 6 48 6 46 0 48 -1 74 -48z m-2606 -487 c41 -9
95 -25 119 -35 53 -23 152 -88 179 -119 22 -24 30 -11 -83 -139 l-73 -82 -34
29 c-166 146 -387 144 -523 -4 -71 -78 -95 -145 -95 -265 0 -130 25 -193 109
-277 52 -51 72 -64 129 -82 133 -41 245 -17 374 82 l53 40 87 -86 86 -86 -29
-32 c-43 -45 -143 -115 -201 -139 -27 -12 -82 -28 -122 -36 -355 -68 -675 124
-758 456 -25 97 -16 282 18 377 32 91 104 199 171 258 65 57 192 121 277 139
88 19 225 19 316 1z m1112 -20 c234 -47 424 -225 477 -446 48 -205 -11 -424
-153 -568 -74 -75 -161 -127 -267 -162 -65 -21 -91 -23 -377 -27 l-308 -4 0
486 0 486 -45 0 -45 0 0 125 0 125 320 0 c248 0 338 -3 398 -15z m1311 0 c230
-55 361 -251 322 -485 -20 -123 -73 -206 -175 -272 -94 -60 -138 -71 -336 -77
l-175 -6 -3 -182 -2 -183 -135 0 -135 0 0 485 0 485 -40 0 -40 0 0 125 0 125
328 0 c256 0 341 -4 391 -15z m-1517 -1805 c88 -206 177 -417 198 -468 l39
-93 -111 3 -112 3 -41 100 -42 100 -194 0 -194 0 -41 -100 -41 -100 -106 -3
c-59 -1 -107 1 -107 5 0 4 89 216 197 470 l197 464 99 -3 99 -3 160 -375z
m1670 -89 c109 -256 198 -466 198 -468 0 -2 -50 -2 -111 -1 l-111 3 -32 80
c-57 140 -28 126 -248 123 l-191 -3 -41 -102 -41 -103 -108 0 c-65 0 -107 4
-105 10 2 5 91 216 198 470 l195 460 100 -2 100 -3 197 -464z m-2796 445 c181
-48 318 -199 343 -378 34 -243 -110 -462 -344 -523 -45 -11 -115 -15 -287 -15
l-228 0 0 465 0 465 233 0 c164 0 247 -4 283 -14z m2084 -81 l0 -95 -145 0
-145 0 0 -370 0 -370 -105 0 -105 0 0 370 0 370 -140 0 -140 0 0 95 0 95 390
0 390 0 0 -95z m280 -2095 l0 -870 350 0 350 0 0 -352 0 -353 -350 350 -350
350 0 -870 0 -870 -865 865 -865 865 0 -688 c0 -378 -3 -687 -8 -687 -4 0
-320 313 -702 695 l-695 695 695 0 695 0 -520 520 -520 520 528 0 527 0 0
-520 0 -520 862 0 863 0 -870 870 -870 870 873 0 872 0 0 -870z"/>
<path d="M1201 7204 c-82 -68 -19 -209 85 -190 92 18 115 159 33 202 -42 21
-84 17 -118 -12z"/>
<path d="M3190 7126 l0 -106 51 0 c43 0 55 5 80 29 40 41 41 98 1 142 -23 26
-38 33 -80 37 l-52 5 0 -107z"/>
<path d="M2240 6151 l0 -361 134 0 c182 0 245 19 326 98 76 75 103 143 103
262 0 149 -69 267 -191 327 -54 26 -66 28 -214 31 l-158 4 0 -361z"/>
<path d="M3540 6331 l0 -181 128 0 c70 0 144 5 164 10 111 31 160 153 106 260
-37 71 -74 84 -250 88 l-148 3 0 -180z"/>
<path d="M2080 4943 c-24 -60 -50 -123 -57 -140 l-13 -33 119 0 120 0 -57 140
c-31 77 -59 140 -62 140 -3 0 -26 -48 -50 -107z"/>
<path d="M3699 4910 l-57 -140 120 0 c92 0 119 3 115 13 -62 154 -111 267
-116 267 -3 0 -31 -63 -62 -140z"/>
<path d="M960 4846 l0 -276 108 0 c123 0 178 14 234 60 105 87 122 278 35 392
-18 23 -54 53 -82 67 -43 23 -64 26 -172 29 l-123 4 0 -276z"/>
</g>
</svg>
