<?xml version="1.0" encoding="UTF-8"?>
<!-- Generator: Adobe Illustrator 18.1.1, SVG Export Plug-In . SVG Version: 6.00 Build 0)  -->
<svg version="1.1" id="Layer_1" xmlns="http://www.w3.org/2000/svg" xmlns:xlink="http://www.w3.org/1999/xlink" x="0px" y="0px" viewBox="-154 360 285.2 121.9" enable-background="new -154 360 285.2 121.9" xml:space="preserve">
<rect x="-159.9" y="352.4" fill="#FFFFFF" width="297" height="137"/>
<polygon fill-rule="evenodd" clip-rule="evenodd" fill="#B42E34" points="-66.5,361.5 -66.5,409.5 -114.5,361.5 "/>
<polygon fill-rule="evenodd" clip-rule="evenodd" fill="#B42E34" points="-66.5,409.5 -66.5,457.6 -114.5,409.5 "/>
<polygon fill-rule="evenodd" clip-rule="evenodd" fill="#D11242" points="-114.5,409.5 -114.5,448 -153,409.5 "/>
<polygon fill-rule="evenodd" clip-rule="evenodd" fill="#D11242" points="-114.5,380.7 -114.5,409.5 -143.4,380.7 "/>
<polygon fill-rule="evenodd" clip-rule="evenodd" fill="#D11242" points="-47.2,409.5 -47.2,428.8 -66.5,409.5 "/>
<path fill="#B42E34" d="M-11.1,455.2c11.2,0,17.8-4,23.8-10.3l-8.1-8.2c-4.6,4.1-8.6,6.8-15.2,6.8c-9.9,0-16.8-8.3-16.8-18.2v-0.2  c0-9.9,7-18,16.8-18c5.8,0,10.3,2.5,14.8,6.5l8.1-9.4c-5.4-5.3-11.9-8.9-22.8-8.9c-17.8,0-30.2,13.5-30.2,30v0.2  C-40.8,442.1-28.2,455.2-11.1,455.2 M20.3,454.3h22.6c18.2,0,30.8-12.7,30.8-29v-0.2c0-16.3-12.6-28.8-30.8-28.8H16.1v11.6l4.2-0.1  V454.3z M33.1,442.8v-34.9h9.9c10.4,0,17.5,7.2,17.5,17.5v0.2c0,10.3-7,17.3-17.5,17.3H33.1z M82.6,454.3h12.7v-17.4h9.7  c13,0,23.4-7,23.4-20.4v-0.2c0-11.8-8.4-20-22.2-20H78.4v11.5l4.1-0.1V454.3z M95.3,425.5v-17.7h9.8c6.4,0,10.3,3.1,10.3,8.8v0.2  c0,5-3.7,8.8-10.1,8.8H95.3z"/>
<g>
	<path fill="#B42E34" d="M122.8,396.7h-1.1v-0.4h2.7v0.4h-1.1v3h-0.5V396.7z"/>
	<path fill="#B42E34" d="M124.7,396.3h0.6l1.1,2.9l1.1-2.9h0.6v3.4h-0.4v-2.9h0l-1.1,2.9h-0.4l-1.1-2.9h0v2.9h-0.4V396.3z"/>
</g>
<g>
	<g>
		<path fill="#B42E34" d="M-137.9,468.7h4.3c4,0,6.3,2.3,6.3,5.5v0c0,3.2-2.3,5.6-6.3,5.6h-4.2V468.7z M-133.6,477.1    c1.8,0,3.1-1,3.1-2.8v0c0-1.8-1.2-2.8-3.1-2.8h-1.3v5.6H-133.6z"/>
		<path fill="#B42E34" d="M-125.6,468.7h3.1v11.1h-3.1V468.7z"/>
		<path fill="#B42E34" d="M-121.1,478.1l1.7-2c1.1,0.9,2.3,1.3,3.6,1.3c0.8,0,1.3-0.3,1.3-0.8v0c0-0.5-0.4-0.7-1.9-1.1    c-2.4-0.5-4.2-1.2-4.2-3.5v0c0-2.1,1.6-3.6,4.3-3.6c1.9,0,3.4,0.5,4.6,1.5l-1.5,2.2c-1-0.7-2.1-1.1-3.1-1.1    c-0.7,0-1.1,0.3-1.1,0.7v0c0,0.5,0.4,0.7,1.9,1.1c2.6,0.6,4.1,1.4,4.1,3.5v0c0,2.3-1.8,3.6-4.5,3.6    C-117.9,480-119.7,479.4-121.1,478.1z"/>
		<path fill="#B42E34" d="M-110.3,474.3L-110.3,474.3c0-3.3,2.5-5.8,5.9-5.8c2.3,0,3.7,1,4.7,2.3l-2.3,1.8c-0.6-0.8-1.4-1.3-2.4-1.3    c-1.6,0-2.6,1.3-2.6,2.9v0c0,1.7,1.1,3,2.6,3c1.2,0,1.8-0.5,2.5-1.3l2.3,1.6c-1,1.4-2.5,2.5-4.9,2.5    C-107.7,480-110.3,477.6-110.3,474.3z"/>
		<path fill="#B42E34" d="M-98.3,468.7h3.1v8.4h5.4v2.7h-8.5V468.7z"/>
		<path fill="#B42E34" d="M-89.4,474.3L-89.4,474.3c0-3.2,2.6-5.8,6-5.8s6,2.6,6,5.7v0c0,3.2-2.6,5.8-6,5.8S-89.4,477.5-89.4,474.3z     M-80.5,474.3L-80.5,474.3c0-1.6-1.2-3-2.9-3c-1.7,0-2.8,1.4-2.8,3v0c0,1.6,1.2,3,2.8,3C-81.7,477.2-80.5,475.9-80.5,474.3z"/>
		<path fill="#B42E34" d="M-76.7,478.1l1.7-2c1.1,0.9,2.3,1.3,3.6,1.3c0.8,0,1.3-0.3,1.3-0.8v0c0-0.5-0.4-0.7-1.9-1.1    c-2.4-0.5-4.2-1.2-4.2-3.5v0c0-2.1,1.6-3.6,4.3-3.6c1.9,0,3.4,0.5,4.6,1.5l-1.5,2.2c-1-0.7-2.1-1.1-3.1-1.1    c-0.7,0-1.1,0.3-1.1,0.7v0c0,0.5,0.4,0.7,1.9,1.1c2.6,0.6,4.1,1.4,4.1,3.5v0c0,2.3-1.8,3.6-4.5,3.6    C-73.5,480-75.3,479.4-76.7,478.1z"/>
		<path fill="#B42E34" d="M-65.4,474.9v-6.2h3.1v6.2c0,1.6,0.8,2.4,2,2.4c1.2,0,2-0.7,2-2.3v-6.2h3.1v6.2c0,3.6-2,5.2-5.2,5.2    C-63.4,480-65.4,478.4-65.4,474.9z"/>
		<path fill="#B42E34" d="M-53,468.7h5.2c1.7,0,2.9,0.4,3.6,1.2c0.6,0.6,1,1.5,1,2.6v0c0,1.7-0.9,2.8-2.3,3.4l2.6,3.9h-3.6l-2.2-3.4    h0H-50v3.4H-53V468.7z M-47.9,474c1,0,1.6-0.5,1.6-1.3v0c0-0.9-0.6-1.3-1.7-1.3h-2v2.7H-47.9z"/>
		<path fill="#B42E34" d="M-41.4,468.7h8.9v2.6h-5.9v1.7h5.3v2.4h-5.3v1.8h6v2.6h-9V468.7z"/>
		<path fill="#B42E34" d="M-23.1,468.7h3.1v11.1h-3.1V468.7z"/>
		<path fill="#B42E34" d="M-17.8,468.7h2.9l4.6,5.9v-5.9h3v11.1H-10l-4.7-6.1v6.1h-3V468.7z"/>
		<path fill="#B42E34" d="M-5.9,478.1l1.7-2c1.1,0.9,2.3,1.3,3.6,1.3c0.8,0,1.3-0.3,1.3-0.8v0c0-0.5-0.4-0.7-1.9-1.1    c-2.4-0.5-4.2-1.2-4.2-3.5v0c0-2.1,1.6-3.6,4.3-3.6c1.9,0,3.4,0.5,4.6,1.5l-1.5,2.2c-1-0.7-2.1-1.1-3.1-1.1    c-0.7,0-1.1,0.3-1.1,0.7v0c0,0.5,0.4,0.7,1.9,1.1c2.6,0.6,4.1,1.4,4.1,3.5v0c0,2.3-1.8,3.6-4.5,3.6C-2.7,480-4.6,479.4-5.9,478.1z    "/>
		<path fill="#B42E34" d="M5.5,468.7h3.1v11.1H5.5V468.7z"/>
		<path fill="#B42E34" d="M10.3,474.3L10.3,474.3c0-3.3,2.5-5.8,6-5.8c2,0,3.3,0.6,4.5,1.6l-1.8,2.2c-0.8-0.7-1.6-1-2.7-1    c-1.6,0-2.8,1.3-2.8,3v0c0,1.8,1.3,3.1,3,3.1c0.7,0,1.3-0.2,1.8-0.5v-1.3H16v-2.3h5.1v5c-1.2,1-2.8,1.7-4.8,1.7    C12.9,480,10.3,477.6,10.3,474.3z"/>
		<path fill="#B42E34" d="M23.1,468.7h3.1v4.2h3.9v-4.2h3.1v11.1h-3.1v-4.2h-3.9v4.2h-3.1V468.7z"/>
		<path fill="#B42E34" d="M38.1,471.4h-3.3v-2.7h9.7v2.7h-3.3v8.4h-3.1V471.4z"/>
		<path fill="#B42E34" d="M55.3,468.6h3l4.7,11.2h-3.3l-0.8-2h-4.3l-0.8,2h-3.2L55.3,468.6z M58,475.4l-1.2-3.2l-1.3,3.2H58z"/>
		<path fill="#B42E34" d="M63,474.3L63,474.3c0-3.3,2.5-5.8,5.8-5.8c2.3,0,3.7,1,4.7,2.3l-2.3,1.8c-0.6-0.8-1.4-1.3-2.4-1.3    c-1.6,0-2.6,1.3-2.6,2.9v0c0,1.7,1.1,3,2.6,3c1.2,0,1.8-0.5,2.5-1.3l2.3,1.6c-1,1.4-2.5,2.5-4.9,2.5C65.5,480,63,477.6,63,474.3z"/>
		<path fill="#B42E34" d="M77.5,471.4h-3.3v-2.7h9.7v2.7h-3.3v8.4h-3.1V471.4z"/>
		<path fill="#B42E34" d="M85.6,468.7h3.1v11.1h-3.1V468.7z"/>
		<path fill="#B42E34" d="M90.3,474.3L90.3,474.3c0-3.2,2.6-5.8,6-5.8c3.4,0,6,2.6,6,5.7v0c0,3.2-2.6,5.8-6,5.8    S90.3,477.5,90.3,474.3z M99.1,474.3L99.1,474.3c0-1.6-1.2-3-2.9-3c-1.7,0-2.8,1.4-2.8,3v0c0,1.6,1.2,3,2.8,3    C98,477.2,99.1,475.9,99.1,474.3z"/>
		<path fill="#B42E34" d="M103.8,468.7h2.9l4.6,5.9v-5.9h3v11.1h-2.7l-4.7-6.1v6.1h-3V468.7z"/>
	</g>
</g>
</svg>